0
SECTION
2
HEADER
9
$ACADVER
1
AC1009
9
$DWGCODEPAGE
3
ANSI_1252
9
$INSUNITS
70
4
9
$EXTMIN
10
-11000
20
-38000
30
0
9
$EXTMAX
10
48000
20
15000
30
0
0
ENDSEC
0
SECTION
2
TABLES
0
TABLE
2
LTYPE
70
2
0
LTYPE
2
CONTINUOUS
70
0
3
Solid line
72
65
73
0
40
0.0
0
LTYPE
2
DASHED
70
0
3
Dashed __ __
72
65
73
2
40
12.0
49
8.0
74
0
49
-4.0
74
0
0
ENDTAB
0
TABLE
2
LAYER
70
15
0
LAYER
2
A-TITLE
70
0
62
7
6
CONTINUOUS
0
LAYER
2
A-ANNO
70
0
62
7
6
CONTINUOUS
0
LAYER
2
A-DIMS
70
0
62
3
6
CONTINUOUS
0
LAYER
2
A-CENTER
70
0
62
4
6
CONTINUOUS
0
LAYER
2
A-HIDDEN
70
0
62
8
6
DASHED
0
LAYER
2
A-RAILING
70
0
62
30
6
CONTINUOUS
0
LAYER
2
S-FOUNDATION
70
0
62
8
6
CONTINUOUS
0
LAYER
2
S-COLUMN-BASE
70
0
62
9
6
CONTINUOUS
0
LAYER
2
S-COLUMN
70
0
62
1
6
CONTINUOUS
0
LAYER
2
S-BEAM
70
0
62
30
6
CONTINUOUS
0
LAYER
2
S-DOUGONG
70
0
62
3
6
CONTINUOUS
0
LAYER
2
S-PURLIN
70
0
62
32
6
CONTINUOUS
0
LAYER
2
S-RAFTER
70
0
62
33
6
CONTINUOUS
0
LAYER
2
S-ROOF
70
0
62
5
6
CONTINUOUS
0
LAYER
2
S-RIDGE
70
0
62
2
6
CONTINUOUS
0
ENDTAB
0
ENDSEC
0
SECTION
2
ENTITIES
0
LINE
8
S-FOUNDATION
10
5912.829
20
6449.174
30
0
11
2449.174
21
9912.829
31
0
0
LINE
8
S-FOUNDATION
10
2449.174
20
9912.829
30
0
11
-2449.174
21
9912.829
31
0
0
LINE
8
S-FOUNDATION
10
-2449.174
20
9912.829
30
0
11
-5912.829
21
6449.174
31
0
0
LINE
8
S-FOUNDATION
10
-5912.829
20
6449.174
30
0
11
-5912.829
21
1550.826
31
0
0
LINE
8
S-FOUNDATION
10
-5912.829
20
1550.826
30
0
11
-2449.174
21
-1912.829
31
0
0
LINE
8
S-FOUNDATION
10
-2449.174
20
-1912.829
30
0
11
2449.174
21
-1912.829
31
0
0
LINE
8
S-FOUNDATION
10
2449.174
20
-1912.829
30
0
11
5912.829
21
1550.826
31
0
0
LINE
8
S-FOUNDATION
10
5912.829
20
1550.826
30
0
11
5912.829
21
6449.174
31
0
0
LINE
8
S-FOUNDATION
10
5497.0832
20
6276.9664
30
0
11
2276.9664
21
9497.0832
31
0
0
LINE
8
S-FOUNDATION
10
2276.9664
20
9497.0832
30
0
11
-2276.9664
21
9497.0832
31
0
0
LINE
8
S-FOUNDATION
10
-2276.9664
20
9497.0832
30
0
11
-5497.0832
21
6276.9664
31
0
0
LINE
8
S-FOUNDATION
10
-5497.0832
20
6276.9664
30
0
11
-5497.0832
21
1723.0336
31
0
0
LINE
8
S-FOUNDATION
10
-5497.0832
20
1723.0336
30
0
11
-2276.9664
21
-1497.0832
31
0
0
LINE
8
S-FOUNDATION
10
-2276.9664
20
-1497.0832
30
0
11
2276.9664
21
-1497.0832
31
0
0
LINE
8
S-FOUNDATION
10
2276.9664
20
-1497.0832
30
0
11
5497.0832
21
1723.0336
31
0
0
LINE
8
S-FOUNDATION
10
5497.0832
20
1723.0336
30
0
11
5497.0832
21
6276.9664
31
0
0
LINE
8
S-FOUNDATION
10
5192.203
20
6150.6809
30
0
11
2150.6809
21
9192.203
31
0
0
LINE
8
S-FOUNDATION
10
2150.6809
20
9192.203
30
0
11
-2150.6809
21
9192.203
31
0
0
LINE
8
S-FOUNDATION
10
-2150.6809
20
9192.203
30
0
11
-5192.203
21
6150.6809
31
0
0
LINE
8
S-FOUNDATION
10
-5192.203
20
6150.6809
30
0
11
-5192.203
21
1849.3191
31
0
0
LINE
8
S-FOUNDATION
10
-5192.203
20
1849.3191
30
0
11
-2150.6809
21
-1192.203
31
0
0
LINE
8
S-FOUNDATION
10
-2150.6809
20
-1192.203
30
0
11
2150.6809
21
-1192.203
31
0
0
LINE
8
S-FOUNDATION
10
2150.6809
20
-1192.203
30
0
11
5192.203
21
1849.3191
31
0
0
LINE
8
S-FOUNDATION
10
5192.203
20
1849.3191
30
0
11
5192.203
21
6150.6809
31
0
0
CIRCLE
8
S-COLUMN-BASE
10
4388.4278
20
5817.7463
30
0
40
560
0
CIRCLE
8
S-COLUMN
10
4388.4278
20
5817.7463
30
0
40
300
0
LINE
8
A-CENTER
10
4308.4278
20
5817.7463
30
0
11
4468.4278
21
5817.7463
31
0
0
LINE
8
A-CENTER
10
4388.4278
20
5737.7463
30
0
11
4388.4278
21
5897.7463
31
0
0
CIRCLE
8
S-COLUMN-BASE
10
1817.7463
20
8388.4278
30
0
40
560
0
CIRCLE
8
S-COLUMN
10
1817.7463
20
8388.4278
30
0
40
300
0
LINE
8
A-CENTER
10
1737.7463
20
8388.4278
30
0
11
1897.7463
21
8388.4278
31
0
0
LINE
8
A-CENTER
10
1817.7463
20
8308.4278
30
0
11
1817.7463
21
8468.4278
31
0
0
CIRCLE
8
S-COLUMN-BASE
10
-1817.7463
20
8388.4278
30
0
40
560
0
CIRCLE
8
S-COLUMN
10
-1817.7463
20
8388.4278
30
0
40
300
0
LINE
8
A-CENTER
10
-1897.7463
20
8388.4278
30
0
11
-1737.7463
21
8388.4278
31
0
0
LINE
8
A-CENTER
10
-1817.7463
20
8308.4278
30
0
11
-1817.7463
21
8468.4278
31
0
0
CIRCLE
8
S-COLUMN-BASE
10
-4388.4278
20
5817.7463
30
0
40
560
0
CIRCLE
8
S-COLUMN
10
-4388.4278
20
5817.7463
30
0
40
300
0
LINE
8
A-CENTER
10
-4468.4278
20
5817.7463
30
0
11
-4308.4278
21
5817.7463
31
0
0
LINE
8
A-CENTER
10
-4388.4278
20
5737.7463
30
0
11
-4388.4278
21
5897.7463
31
0
0
CIRCLE
8
S-COLUMN-BASE
10
-4388.4278
20
2182.2537
30
0
40
560
0
CIRCLE
8
S-COLUMN
10
-4388.4278
20
2182.2537
30
0
40
300
0
LINE
8
A-CENTER
10
-4468.4278
20
2182.2537
30
0
11
-4308.4278
21
2182.2537
31
0
0
LINE
8
A-CENTER
10
-4388.4278
20
2102.2537
30
0
11
-4388.4278
21
2262.2537
31
0
0
CIRCLE
8
S-COLUMN-BASE
10
-1817.7463
20
-388.4278
30
0
40
560
0
CIRCLE
8
S-COLUMN
10
-1817.7463
20
-388.4278
30
0
40
300
0
LINE
8
A-CENTER
10
-1897.7463
20
-388.4278
30
0
11
-1737.7463
21
-388.4278
31
0
0
LINE
8
A-CENTER
10
-1817.7463
20
-468.4278
30
0
11
-1817.7463
21
-308.4278
31
0
0
CIRCLE
8
S-COLUMN-BASE
10
1817.7463
20
-388.4278
30
0
40
560
0
CIRCLE
8
S-COLUMN
10
1817.7463
20
-388.4278
30
0
40
300
0
LINE
8
A-CENTER
10
1737.7463
20
-388.4278
30
0
11
1897.7463
21
-388.4278
31
0
0
LINE
8
A-CENTER
10
1817.7463
20
-468.4278
30
0
11
1817.7463
21
-308.4278
31
0
0
CIRCLE
8
S-COLUMN-BASE
10
4388.4278
20
2182.2537
30
0
40
560
0
CIRCLE
8
S-COLUMN
10
4388.4278
20
2182.2537
30
0
40
300
0
LINE
8
A-CENTER
10
4308.4278
20
2182.2537
30
0
11
4468.4278
21
2182.2537
31
0
0
LINE
8
A-CENTER
10
4388.4278
20
2102.2537
30
0
11
4388.4278
21
2262.2537
31
0
0
LINE
8
S-BEAM
10
4218.7222
20
5648.0407
30
0
11
1648.0407
21
8218.7222
31
0
0
LINE
8
S-BEAM
10
4558.1334
20
5987.4519
30
0
11
1987.4519
21
8558.1334
31
0
0
LINE
8
S-BEAM
10
4218.7222
20
5648.0407
30
0
11
4558.1334
21
5987.4519
31
0
0
LINE
8
S-BEAM
10
1648.0407
20
8218.7222
30
0
11
1987.4519
21
8558.1334
31
0
0
LINE
8
A-RAILING
10
4072.0891
20
5655.6485
30
0
11
1655.6485
21
8072.0891
31
0
0
LINE
8
A-RAILING
10
4178.1551
20
5761.7145
30
0
11
1761.7145
21
8178.1551
31
0
0
LINE
8
A-RAILING
10
4072.0891
20
5655.6485
30
0
11
4178.1551
21
5761.7145
31
0
0
LINE
8
A-RAILING
10
1655.6485
20
8072.0891
30
0
11
1761.7145
21
8178.1551
31
0
0
LINE
8
S-BEAM
10
1817.7463
20
8148.4278
30
0
11
-1817.7463
21
8148.4278
31
0
0
LINE
8
S-BEAM
10
1817.7463
20
8628.4278
30
0
11
-1817.7463
21
8628.4278
31
0
0
LINE
8
S-BEAM
10
1817.7463
20
8148.4278
30
0
11
1817.7463
21
8628.4278
31
0
0
LINE
8
S-BEAM
10
-1817.7463
20
8148.4278
30
0
11
-1817.7463
21
8628.4278
31
0
0
LINE
8
A-RAILING
10
1708.6815
20
8050.1221
30
0
11
-1708.6815
21
8050.1221
31
0
0
LINE
8
A-RAILING
10
1708.6815
20
8200.1221
30
0
11
-1708.6815
21
8200.1221
31
0
0
LINE
8
A-RAILING
10
1708.6815
20
8050.1221
30
0
11
1708.6815
21
8200.1221
31
0
0
LINE
8
A-RAILING
10
-1708.6815
20
8050.1221
30
0
11
-1708.6815
21
8200.1221
31
0
0
LINE
8
S-BEAM
10
-1648.0407
20
8218.7222
30
0
11
-4218.7222
21
5648.0407
31
0
0
LINE
8
S-BEAM
10
-1987.4519
20
8558.1334
30
0
11
-4558.1334
21
5987.4519
31
0
0
LINE
8
S-BEAM
10
-1648.0407
20
8218.7222
30
0
11
-1987.4519
21
8558.1334
31
0
0
LINE
8
S-BEAM
10
-4218.7222
20
5648.0407
30
0
11
-4558.1334
21
5987.4519
31
0
0
LINE
8
A-RAILING
10
-1655.6485
20
8072.0891
30
0
11
-4072.0891
21
5655.6485
31
0
0
LINE
8
A-RAILING
10
-1761.7145
20
8178.1551
30
0
11
-4178.1551
21
5761.7145
31
0
0
LINE
8
A-RAILING
10
-1655.6485
20
8072.0891
30
0
11
-1761.7145
21
8178.1551
31
0
0
LINE
8
A-RAILING
10
-4072.0891
20
5655.6485
30
0
11
-4178.1551
21
5761.7145
31
0
0
LINE
8
S-BEAM
10
-4148.4278
20
5817.7463
30
0
11
-4148.4278
21
2182.2537
31
0
0
LINE
8
S-BEAM
10
-4628.4278
20
5817.7463
30
0
11
-4628.4278
21
2182.2537
31
0
0
LINE
8
S-BEAM
10
-4148.4278
20
5817.7463
30
0
11
-4628.4278
21
5817.7463
31
0
0
LINE
8
S-BEAM
10
-4148.4278
20
2182.2537
30
0
11
-4628.4278
21
2182.2537
31
0
0
LINE
8
A-RAILING
10
-4050.1221
20
5708.6815
30
0
11
-4050.1221
21
2291.3185
31
0
0
LINE
8
A-RAILING
10
-4200.1221
20
5708.6815
30
0
11
-4200.1221
21
2291.3185
31
0
0
LINE
8
A-RAILING
10
-4050.1221
20
5708.6815
30
0
11
-4200.1221
21
5708.6815
31
0
0
LINE
8
A-RAILING
10
-4050.1221
20
2291.3185
30
0
11
-4200.1221
21
2291.3185
31
0
0
LINE
8
S-BEAM
10
-4218.7222
20
2351.9593
30
0
11
-1648.0407
21
-218.7222
31
0
0
LINE
8
S-BEAM
10
-4558.1334
20
2012.5481
30
0
11
-1987.4519
21
-558.1334
31
0
0
LINE
8
S-BEAM
10
-4218.7222
20
2351.9593
30
0
11
-4558.1334
21
2012.5481
31
0
0
LINE
8
S-BEAM
10
-1648.0407
20
-218.7222
30
0
11
-1987.4519
21
-558.1334
31
0
0
LINE
8
A-RAILING
10
-4072.0891
20
2344.3515
30
0
11
-1655.6485
21
-72.0891
31
0
0
LINE
8
A-RAILING
10
-4178.1551
20
2238.2855
30
0
11
-1761.7145
21
-178.1551
31
0
0
LINE
8
A-RAILING
10
-4072.0891
20
2344.3515
30
0
11
-4178.1551
21
2238.2855
31
0
0
LINE
8
A-RAILING
10
-1655.6485
20
-72.0891
30
0
11
-1761.7145
21
-178.1551
31
0
0
LINE
8
S-BEAM
10
-1817.7463
20
-148.4278
30
0
11
1817.7463
21
-148.4278
31
0
0
LINE
8
S-BEAM
10
-1817.7463
20
-628.4278
30
0
11
1817.7463
21
-628.4278
31
0
0
LINE
8
S-BEAM
10
-1817.7463
20
-148.4278
30
0
11
-1817.7463
21
-628.4278
31
0
0
LINE
8
S-BEAM
10
1817.7463
20
-148.4278
30
0
11
1817.7463
21
-628.4278
31
0
0
LINE
8
A-RAILING
10
-1708.6815
20
-50.1221
30
0
11
1708.6815
21
-50.1221
31
0
0
LINE
8
A-RAILING
10
-1708.6815
20
-200.1221
30
0
11
1708.6815
21
-200.1221
31
0
0
LINE
8
A-RAILING
10
-1708.6815
20
-50.1221
30
0
11
-1708.6815
21
-200.1221
31
0
0
LINE
8
A-RAILING
10
1708.6815
20
-50.1221
30
0
11
1708.6815
21
-200.1221
31
0
0
LINE
8
S-BEAM
10
1648.0407
20
-218.7222
30
0
11
4218.7222
21
2351.9593
31
0
0
LINE
8
S-BEAM
10
1987.4519
20
-558.1334
30
0
11
4558.1334
21
2012.5481
31
0
0
LINE
8
S-BEAM
10
1648.0407
20
-218.7222
30
0
11
1987.4519
21
-558.1334
31
0
0
LINE
8
S-BEAM
10
4218.7222
20
2351.9593
30
0
11
4558.1334
21
2012.5481
31
0
0
LINE
8
A-RAILING
10
1655.6485
20
-72.0891
30
0
11
4072.0891
21
2344.3515
31
0
0
LINE
8
A-RAILING
10
1761.7145
20
-178.1551
30
0
11
4178.1551
21
2238.2855
31
0
0
LINE
8
A-RAILING
10
1655.6485
20
-72.0891
30
0
11
1761.7145
21
-178.1551
31
0
0
LINE
8
A-RAILING
10
4072.0891
20
2344.3515
30
0
11
4178.1551
21
2238.2855
31
0
0
LINE
8
S-BEAM
10
4148.4278
20
2182.2537
30
0
11
4148.4278
21
5817.7463
31
0
0
LINE
8
S-BEAM
10
4628.4278
20
2182.2537
30
0
11
4628.4278
21
5817.7463
31
0
0
LINE
8
S-BEAM
10
4148.4278
20
2182.2537
30
0
11
4628.4278
21
2182.2537
31
0
0
LINE
8
S-BEAM
10
4148.4278
20
5817.7463
30
0
11
4628.4278
21
5817.7463
31
0
0
LINE
8
A-RAILING
10
4050.1221
20
2291.3185
30
0
11
4050.1221
21
5708.6815
31
0
0
LINE
8
A-RAILING
10
4200.1221
20
2291.3185
30
0
11
4200.1221
21
5708.6815
31
0
0
LINE
8
A-RAILING
10
4050.1221
20
2291.3185
30
0
11
4200.1221
21
2291.3185
31
0
0
LINE
8
A-RAILING
10
4050.1221
20
5708.6815
30
0
11
4200.1221
21
5708.6815
31
0
0
LINE
8
S-BEAM
10
4453.484
20
5660.6868
30
0
11
-4323.3716
21
2025.1942
31
0
0
LINE
8
S-BEAM
10
4323.3716
20
5974.8058
30
0
11
-4453.484
21
2339.3132
31
0
0
LINE
8
S-BEAM
10
4453.484
20
5660.6868
30
0
11
4323.3716
21
5974.8058
31
0
0
LINE
8
S-BEAM
10
-4323.3716
20
2025.1942
30
0
11
-4453.484
21
2339.3132
31
0
0
LINE
8
S-BEAM
10
1974.8058
20
8323.3716
30
0
11
-1660.6868
21
-453.484
31
0
0
LINE
8
S-BEAM
10
1660.6868
20
8453.484
30
0
11
-1974.8058
21
-323.3716
31
0
0
LINE
8
S-BEAM
10
1974.8058
20
8323.3716
30
0
11
1660.6868
21
8453.484
31
0
0
LINE
8
S-BEAM
10
-1660.6868
20
-453.484
30
0
11
-1974.8058
21
-323.3716
31
0
0
LINE
8
S-BEAM
10
-1660.6868
20
8453.484
30
0
11
1974.8058
21
-323.3716
31
0
0
LINE
8
S-BEAM
10
-1974.8058
20
8323.3716
30
0
11
1660.6868
21
-453.484
31
0
0
LINE
8
S-BEAM
10
-1660.6868
20
8453.484
30
0
11
-1974.8058
21
8323.3716
31
0
0
LINE
8
S-BEAM
10
1974.8058
20
-323.3716
30
0
11
1660.6868
21
-453.484
31
0
0
LINE
8
S-BEAM
10
-4323.3716
20
5974.8058
30
0
11
4453.484
21
2339.3132
31
0
0
LINE
8
S-BEAM
10
-4453.484
20
5660.6868
30
0
11
4323.3716
21
2025.1942
31
0
0
LINE
8
S-BEAM
10
-4323.3716
20
5974.8058
30
0
11
-4453.484
21
5660.6868
31
0
0
LINE
8
S-BEAM
10
4453.484
20
2339.3132
30
0
11
4323.3716
21
2025.1942
31
0
0
LINE
8
S-ROOF
10
6328.5748
20
6621.3815
30
0
11
2621.3815
21
10328.5748
31
0
0
LINE
8
S-ROOF
10
2621.3815
20
10328.5748
30
0
11
-2621.3815
21
10328.5748
31
0
0
LINE
8
S-ROOF
10
-2621.3815
20
10328.5748
30
0
11
-6328.5748
21
6621.3815
31
0
0
LINE
8
S-ROOF
10
-6328.5748
20
6621.3815
30
0
11
-6328.5748
21
1378.6185
31
0
0
LINE
8
S-ROOF
10
-6328.5748
20
1378.6185
30
0
11
-2621.3815
21
-2328.5748
31
0
0
LINE
8
S-ROOF
10
-2621.3815
20
-2328.5748
30
0
11
2621.3815
21
-2328.5748
31
0
0
LINE
8
S-ROOF
10
2621.3815
20
-2328.5748
30
0
11
6328.5748
21
1378.6185
31
0
0
LINE
8
S-ROOF
10
6328.5748
20
1378.6185
30
0
11
6328.5748
21
6621.3815
31
0
0
LINE
8
S-RAFTER
10
0
20
4000
30
0
11
6365.53
21
6636.6888
31
0
0
LINE
8
S-RAFTER
10
0
20
4000
30
0
11
4702.2601
21
8702.2601
31
0
0
LINE
8
S-RAFTER
10
0
20
4000
30
0
11
2636.6888
21
10365.53
31
0
0
LINE
8
S-RAFTER
10
0
20
4000
30
0
11
0
21
10650
31
0
0
LINE
8
S-RAFTER
10
0
20
4000
30
0
11
-2636.6888
21
10365.53
31
0
0
LINE
8
S-RAFTER
10
0
20
4000
30
0
11
-4702.2601
21
8702.2601
31
0
0
LINE
8
S-RAFTER
10
0
20
4000
30
0
11
-6365.53
21
6636.6888
31
0
0
LINE
8
S-RAFTER
10
0
20
4000
30
0
11
-6650
21
4000
31
0
0
LINE
8
S-RAFTER
10
0
20
4000
30
0
11
-6365.53
21
1363.3112
31
0
0
LINE
8
S-RAFTER
10
0
20
4000
30
0
11
-4702.2601
21
-702.2601
31
0
0
LINE
8
S-RAFTER
10
0
20
4000
30
0
11
-2636.6888
21
-2365.53
31
0
0
LINE
8
S-RAFTER
10
0
20
4000
30
0
11
0
21
-2650
31
0
0
LINE
8
S-RAFTER
10
0
20
4000
30
0
11
2636.6888
21
-2365.53
31
0
0
LINE
8
S-RAFTER
10
0
20
4000
30
0
11
4702.2601
21
-702.2601
31
0
0
LINE
8
S-RAFTER
10
0
20
4000
30
0
11
6365.53
21
1363.3112
31
0
0
LINE
8
S-RAFTER
10
0
20
4000
30
0
11
6650
21
4000
31
0
0
LINE
8
S-RIDGE
10
0
20
4000
30
0
11
6384.0076
21
6644.3425
31
0
0
LINE
8
S-RIDGE
10
0
20
4000
30
0
11
2644.3425
21
10384.0076
31
0
0
LINE
8
S-RIDGE
10
0
20
4000
30
0
11
-2644.3425
21
10384.0076
31
0
0
LINE
8
S-RIDGE
10
0
20
4000
30
0
11
-6384.0076
21
6644.3425
31
0
0
LINE
8
S-RIDGE
10
0
20
4000
30
0
11
-6384.0076
21
1355.6575
31
0
0
LINE
8
S-RIDGE
10
0
20
4000
30
0
11
-2644.3425
21
-2384.0076
31
0
0
LINE
8
S-RIDGE
10
0
20
4000
30
0
11
2644.3425
21
-2384.0076
31
0
0
LINE
8
S-RIDGE
10
0
20
4000
30
0
11
6384.0076
21
1355.6575
31
0
0
LINE
8
A-CENTER
10
-8200
20
4000
30
0
11
8200
21
4000
31
0
0
LINE
8
A-CENTER
10
-5798.2756
20
-1798.2756
30
0
11
5798.2756
21
9798.2756
31
0
0
LINE
8
A-CENTER
10
0
20
-4200
30
0
11
0
21
12200
31
0
0
LINE
8
A-CENTER
10
5798.2756
20
-1798.2756
30
0
11
-5798.2756
21
9798.2756
31
0
0
CIRCLE
8
A-CENTER
10
0
20
4000
30
0
40
120
0
TEXT
8
A-CENTER
10
140
20
4140
30
0
40
180
1
CENTER
50
0
0
LINE
8
A-DIMS
10
-6328.5748
20
10328.5748
30
0
11
-6328.5748
21
12050
31
0
0
LINE
8
A-DIMS
10
6328.5748
20
10328.5748
30
0
11
6328.5748
21
12050
31
0
0
LINE
8
A-DIMS
10
-6328.5748
20
11900
30
0
11
6328.5748
21
11900
31
0
0
LINE
8
A-DIMS
10
-6328.5748
20
11900
30
0
11
-6438.3374
21
11969.6575
31
0
0
LINE
8
A-DIMS
10
-6328.5748
20
11900
30
0
11
-6438.3374
21
11830.3425
31
0
0
LINE
8
A-DIMS
10
6328.5748
20
11900
30
0
11
6438.3374
21
11830.3425
31
0
0
LINE
8
A-DIMS
10
6328.5748
20
11900
30
0
11
6438.3374
21
11969.6575
31
0
0
TEXT
8
A-DIMS
10
0
20
12080
30
0
40
220
1
12657 ROOF OVERALL
50
0
72
1
11
0
21
12080
31
0
0
LINE
8
A-DIMS
10
-5912.829
20
-1912.829
30
0
11
-5912.829
21
-3750
31
0
0
LINE
8
A-DIMS
10
5912.829
20
-1912.829
30
0
11
5912.829
21
-3750
31
0
0
LINE
8
A-DIMS
10
-5912.829
20
-3900
30
0
11
5912.829
21
-3900
31
0
0
LINE
8
A-DIMS
10
-5912.829
20
-3900
30
0
11
-6022.5916
21
-3830.3425
31
0
0
LINE
8
A-DIMS
10
-5912.829
20
-3900
30
0
11
-6022.5916
21
-3969.6575
31
0
0
LINE
8
A-DIMS
10
5912.829
20
-3900
30
0
11
6022.5916
21
-3969.6575
31
0
0
LINE
8
A-DIMS
10
5912.829
20
-3900
30
0
11
6022.5916
21
-3830.3425
31
0
0
TEXT
8
A-DIMS
10
0
20
-3720
30
0
40
220
1
11826 FOUNDATION
50
0
72
1
11
0
21
-3720
31
0
0
LINE
8
A-DIMS
10
0
20
4000
30
0
11
4388.4278
21
5817.7463
31
0
0
LINE
8
A-DIMS
10
4388.4278
20
5817.7463
30
0
11
4516.492
21
5795.3955
31
0
0
LINE
8
A-DIMS
10
4388.4278
20
5817.7463
30
0
11
4463.1785
21
5924.1058
31
0
0
TEXT
8
A-DIMS
10
1950
20
5060
30
0
40
220
1
R4750 COLUMN GRID
50
0
0
TEXT
8
A-CENTER
10
-8200
20
10900
30
0
40
190
1
A
50
0
0
TEXT
8
A-CENTER
10
8030
20
-3050
30
0
40
190
1
A
50
0
0
TEXT
8
A-TITLE
10
-8400
20
-4600
30
0
40
360
1
A-101  OCTAGONAL PAVILION PLAN
50
0
0
TEXT
8
A-ANNO
10
-8400
20
-5020
30
0
40
200
1
COLUMN / BEAM / RAFTER SET-OUT
50
0
0
LINE
8
A-TITLE
10
-8400
20
-5200
30
0
11
-3200
21
-5200
31
0
0
TEXT
8
A-ANNO
10
1600
20
-4550
30
0
40
170
1
UNITS: MILLIMETRES | MODEL SPACE 1:1
50
0
0
TEXT
8
A-ANNO
10
1600
20
-4820
30
0
40
170
1
RECOMMENDED PLOT: A3 @ 1:50
50
0
0
TEXT
8
A-ANNO
10
1600
20
-5090
30
0
40
170
1
PROCEDURAL CONCEPT MODEL - NOT FOR CONSTRUCTION
50
0
0
TEXT
8
A-ANNO
10
1600
20
-5360
30
0
40
170
1
VERIFY LOCAL CODES, MATERIAL GRADES AND CONNECTION DESIGN
50
0
0
LINE
8
A-TITLE
10
-9500
20
-6500
30
0
11
9500
21
-6500
31
0
0
LINE
8
A-TITLE
10
9500
20
-6500
30
0
11
9500
21
14500
31
0
0
LINE
8
A-TITLE
10
9500
20
14500
30
0
11
-9500
21
14500
31
0
0
LINE
8
A-TITLE
10
-9500
20
14500
30
0
11
-9500
21
-6500
31
0
0
LINE
8
A-TITLE
10
-9500
20
-5350
30
0
11
9500
21
-5350
31
0
0
LINE
8
A-TITLE
10
2300
20
-6500
30
0
11
2300
21
-5350
31
0
0
LINE
8
A-TITLE
10
7000
20
-6500
30
0
11
7000
21
-5350
31
0
0
TEXT
8
A-TITLE
10
-9150
20
-5840
30
0
40
250
1
MODULAR HERITAGE ASSEMBLY
50
0
0
TEXT
8
A-ANNO
10
-9150
20
-6240
30
0
40
160
1
ABSTRACT OCTAGONAL TIMBER PAVILION
50
0
0
TEXT
8
A-TITLE
10
2600
20
-5840
30
0
40
240
1
GENERAL PLAN
50
0
0
TEXT
8
A-ANNO
10
2600
20
-6240
30
0
40
160
1
UNITS MM | MODEL 1:1 | PLOT 1:50
50
0
0
TEXT
8
A-TITLE
10
7350
20
-5940
30
0
40
360
1
A-101
50
0
0
TEXT
8
A-ANNO
10
7350
20
-6280
30
0
40
150
1
CONCEPT / NOT FOR CONSTRUCTION
50
0
0
LINE
8
S-FOUNDATION
10
19420
20
-250
30
0
11
32580
21
-250
31
0
0
LINE
8
S-FOUNDATION
10
32580
20
-250
30
0
11
32580
21
350
31
0
0
LINE
8
S-FOUNDATION
10
32580
20
350
30
0
11
19420
21
350
31
0
0
LINE
8
S-FOUNDATION
10
19420
20
350
30
0
11
19420
21
-250
31
0
0
LINE
8
S-FOUNDATION
10
20050
20
330
30
0
11
31950
21
330
31
0
0
LINE
8
S-FOUNDATION
10
31950
20
330
30
0
11
31950
21
710
31
0
0
LINE
8
S-FOUNDATION
10
31950
20
710
30
0
11
20050
21
710
31
0
0
LINE
8
S-FOUNDATION
10
20050
20
710
30
0
11
20050
21
330
31
0
0
LINE
8
S-FOUNDATION
10
20380
20
700
30
0
11
31620
21
700
31
0
0
LINE
8
S-FOUNDATION
10
31620
20
700
30
0
11
31620
21
980
31
0
0
LINE
8
S-FOUNDATION
10
31620
20
980
30
0
11
20380
21
980
31
0
0
LINE
8
S-FOUNDATION
10
20380
20
980
30
0
11
20380
21
700
31
0
0
LINE
8
S-COLUMN
10
21231.1
20
1360
30
0
11
21311.1
21
7080
31
0
0
LINE
8
S-COLUMN
10
21991.1
20
1360
30
0
11
21911.1
21
7080
31
0
0
LINE
8
S-COLUMN
10
21231.1
20
1360
30
0
11
21991.1
21
1360
31
0
0
LINE
8
S-COLUMN
10
21311.1
20
7080
30
0
11
21911.1
21
7080
31
0
0
LINE
8
S-COLUMN-BASE
10
20941.1
20
990
30
0
11
22281.1
21
990
31
0
0
LINE
8
S-COLUMN-BASE
10
22281.1
20
990
30
0
11
22281.1
21
1330
31
0
0
LINE
8
S-COLUMN-BASE
10
22281.1
20
1330
30
0
11
20941.1
21
1330
31
0
0
LINE
8
S-COLUMN-BASE
10
20941.1
20
1330
30
0
11
20941.1
21
990
31
0
0
LINE
8
S-COLUMN-BASE
10
21071.1
20
1330
30
0
11
22151.1
21
1330
31
0
0
LINE
8
S-COLUMN-BASE
10
22151.1
20
1330
30
0
11
22151.1
21
1470
31
0
0
LINE
8
S-COLUMN-BASE
10
22151.1
20
1470
30
0
11
21071.1
21
1470
31
0
0
LINE
8
S-COLUMN-BASE
10
21071.1
20
1470
30
0
11
21071.1
21
1330
31
0
0
LINE
8
S-COLUMN
10
23802.2
20
1360
30
0
11
23882.2
21
7080
31
0
0
LINE
8
S-COLUMN
10
24562.2
20
1360
30
0
11
24482.2
21
7080
31
0
0
LINE
8
S-COLUMN
10
23802.2
20
1360
30
0
11
24562.2
21
1360
31
0
0
LINE
8
S-COLUMN
10
23882.2
20
7080
30
0
11
24482.2
21
7080
31
0
0
LINE
8
S-COLUMN-BASE
10
23512.2
20
990
30
0
11
24852.2
21
990
31
0
0
LINE
8
S-COLUMN-BASE
10
24852.2
20
990
30
0
11
24852.2
21
1330
31
0
0
LINE
8
S-COLUMN-BASE
10
24852.2
20
1330
30
0
11
23512.2
21
1330
31
0
0
LINE
8
S-COLUMN-BASE
10
23512.2
20
1330
30
0
11
23512.2
21
990
31
0
0
LINE
8
S-COLUMN-BASE
10
23642.2
20
1330
30
0
11
24722.2
21
1330
31
0
0
LINE
8
S-COLUMN-BASE
10
24722.2
20
1330
30
0
11
24722.2
21
1470
31
0
0
LINE
8
S-COLUMN-BASE
10
24722.2
20
1470
30
0
11
23642.2
21
1470
31
0
0
LINE
8
S-COLUMN-BASE
10
23642.2
20
1470
30
0
11
23642.2
21
1330
31
0
0
LINE
8
S-COLUMN
10
27437.8
20
1360
30
0
11
27517.8
21
7080
31
0
0
LINE
8
S-COLUMN
10
28197.8
20
1360
30
0
11
28117.8
21
7080
31
0
0
LINE
8
S-COLUMN
10
27437.8
20
1360
30
0
11
28197.8
21
1360
31
0
0
LINE
8
S-COLUMN
10
27517.8
20
7080
30
0
11
28117.8
21
7080
31
0
0
LINE
8
S-COLUMN-BASE
10
27147.8
20
990
30
0
11
28487.8
21
990
31
0
0
LINE
8
S-COLUMN-BASE
10
28487.8
20
990
30
0
11
28487.8
21
1330
31
0
0
LINE
8
S-COLUMN-BASE
10
28487.8
20
1330
30
0
11
27147.8
21
1330
31
0
0
LINE
8
S-COLUMN-BASE
10
27147.8
20
1330
30
0
11
27147.8
21
990
31
0
0
LINE
8
S-COLUMN-BASE
10
27277.8
20
1330
30
0
11
28357.8
21
1330
31
0
0
LINE
8
S-COLUMN-BASE
10
28357.8
20
1330
30
0
11
28357.8
21
1470
31
0
0
LINE
8
S-COLUMN-BASE
10
28357.8
20
1470
30
0
11
27277.8
21
1470
31
0
0
LINE
8
S-COLUMN-BASE
10
27277.8
20
1470
30
0
11
27277.8
21
1330
31
0
0
LINE
8
S-COLUMN
10
30008.9
20
1360
30
0
11
30088.9
21
7080
31
0
0
LINE
8
S-COLUMN
10
30768.9
20
1360
30
0
11
30688.9
21
7080
31
0
0
LINE
8
S-COLUMN
10
30008.9
20
1360
30
0
11
30768.9
21
1360
31
0
0
LINE
8
S-COLUMN
10
30088.9
20
7080
30
0
11
30688.9
21
7080
31
0
0
LINE
8
S-COLUMN-BASE
10
29718.9
20
990
30
0
11
31058.9
21
990
31
0
0
LINE
8
S-COLUMN-BASE
10
31058.9
20
990
30
0
11
31058.9
21
1330
31
0
0
LINE
8
S-COLUMN-BASE
10
31058.9
20
1330
30
0
11
29718.9
21
1330
31
0
0
LINE
8
S-COLUMN-BASE
10
29718.9
20
1330
30
0
11
29718.9
21
990
31
0
0
LINE
8
S-COLUMN-BASE
10
29848.9
20
1330
30
0
11
30928.9
21
1330
31
0
0
LINE
8
S-COLUMN-BASE
10
30928.9
20
1330
30
0
11
30928.9
21
1470
31
0
0
LINE
8
S-COLUMN-BASE
10
30928.9
20
1470
30
0
11
29848.9
21
1470
31
0
0
LINE
8
S-COLUMN-BASE
10
29848.9
20
1470
30
0
11
29848.9
21
1330
31
0
0
LINE
8
S-DOUGONG
10
21251.1
20
7335
30
0
11
21971.1
21
7335
31
0
0
LINE
8
S-DOUGONG
10
21971.1
20
7335
30
0
11
21971.1
21
7685
31
0
0
LINE
8
S-DOUGONG
10
21971.1
20
7685
30
0
11
21251.1
21
7685
31
0
0
LINE
8
S-DOUGONG
10
21251.1
20
7685
30
0
11
21251.1
21
7335
31
0
0
LINE
8
S-DOUGONG
10
20871.1
20
7690
30
0
11
22351.1
21
7690
31
0
0
LINE
8
S-DOUGONG
10
22351.1
20
7690
30
0
11
22351.1
21
7910
31
0
0
LINE
8
S-DOUGONG
10
22351.1
20
7910
30
0
11
20871.1
21
7910
31
0
0
LINE
8
S-DOUGONG
10
20871.1
20
7910
30
0
11
20871.1
21
7690
31
0
0
LINE
8
S-DOUGONG
10
21091.1
20
7980
30
0
11
22131.1
21
7980
31
0
0
LINE
8
S-DOUGONG
10
22131.1
20
7980
30
0
11
22131.1
21
8200
31
0
0
LINE
8
S-DOUGONG
10
22131.1
20
8200
30
0
11
21091.1
21
8200
31
0
0
LINE
8
S-DOUGONG
10
21091.1
20
8200
30
0
11
21091.1
21
7980
31
0
0
LINE
8
S-DOUGONG
10
21051.1
20
8250
30
0
11
22171.1
21
8250
31
0
0
LINE
8
S-DOUGONG
10
22171.1
20
8250
30
0
11
22171.1
21
8430
31
0
0
LINE
8
S-DOUGONG
10
22171.1
20
8430
30
0
11
21051.1
21
8430
31
0
0
LINE
8
S-DOUGONG
10
21051.1
20
8430
30
0
11
21051.1
21
8250
31
0
0
LINE
8
S-DOUGONG
10
23822.2
20
7335
30
0
11
24542.2
21
7335
31
0
0
LINE
8
S-DOUGONG
10
24542.2
20
7335
30
0
11
24542.2
21
7685
31
0
0
LINE
8
S-DOUGONG
10
24542.2
20
7685
30
0
11
23822.2
21
7685
31
0
0
LINE
8
S-DOUGONG
10
23822.2
20
7685
30
0
11
23822.2
21
7335
31
0
0
LINE
8
S-DOUGONG
10
23442.2
20
7690
30
0
11
24922.2
21
7690
31
0
0
LINE
8
S-DOUGONG
10
24922.2
20
7690
30
0
11
24922.2
21
7910
31
0
0
LINE
8
S-DOUGONG
10
24922.2
20
7910
30
0
11
23442.2
21
7910
31
0
0
LINE
8
S-DOUGONG
10
23442.2
20
7910
30
0
11
23442.2
21
7690
31
0
0
LINE
8
S-DOUGONG
10
23662.2
20
7980
30
0
11
24702.2
21
7980
31
0
0
LINE
8
S-DOUGONG
10
24702.2
20
7980
30
0
11
24702.2
21
8200
31
0
0
LINE
8
S-DOUGONG
10
24702.2
20
8200
30
0
11
23662.2
21
8200
31
0
0
LINE
8
S-DOUGONG
10
23662.2
20
8200
30
0
11
23662.2
21
7980
31
0
0
LINE
8
S-DOUGONG
10
23622.2
20
8250
30
0
11
24742.2
21
8250
31
0
0
LINE
8
S-DOUGONG
10
24742.2
20
8250
30
0
11
24742.2
21
8430
31
0
0
LINE
8
S-DOUGONG
10
24742.2
20
8430
30
0
11
23622.2
21
8430
31
0
0
LINE
8
S-DOUGONG
10
23622.2
20
8430
30
0
11
23622.2
21
8250
31
0
0
LINE
8
S-DOUGONG
10
27457.8
20
7335
30
0
11
28177.8
21
7335
31
0
0
LINE
8
S-DOUGONG
10
28177.8
20
7335
30
0
11
28177.8
21
7685
31
0
0
LINE
8
S-DOUGONG
10
28177.8
20
7685
30
0
11
27457.8
21
7685
31
0
0
LINE
8
S-DOUGONG
10
27457.8
20
7685
30
0
11
27457.8
21
7335
31
0
0
LINE
8
S-DOUGONG
10
27077.8
20
7690
30
0
11
28557.8
21
7690
31
0
0
LINE
8
S-DOUGONG
10
28557.8
20
7690
30
0
11
28557.8
21
7910
31
0
0
LINE
8
S-DOUGONG
10
28557.8
20
7910
30
0
11
27077.8
21
7910
31
0
0
LINE
8
S-DOUGONG
10
27077.8
20
7910
30
0
11
27077.8
21
7690
31
0
0
LINE
8
S-DOUGONG
10
27297.8
20
7980
30
0
11
28337.8
21
7980
31
0
0
LINE
8
S-DOUGONG
10
28337.8
20
7980
30
0
11
28337.8
21
8200
31
0
0
LINE
8
S-DOUGONG
10
28337.8
20
8200
30
0
11
27297.8
21
8200
31
0
0
LINE
8
S-DOUGONG
10
27297.8
20
8200
30
0
11
27297.8
21
7980
31
0
0
LINE
8
S-DOUGONG
10
27257.8
20
8250
30
0
11
28377.8
21
8250
31
0
0
LINE
8
S-DOUGONG
10
28377.8
20
8250
30
0
11
28377.8
21
8430
31
0
0
LINE
8
S-DOUGONG
10
28377.8
20
8430
30
0
11
27257.8
21
8430
31
0
0
LINE
8
S-DOUGONG
10
27257.8
20
8430
30
0
11
27257.8
21
8250
31
0
0
LINE
8
S-DOUGONG
10
30028.9
20
7335
30
0
11
30748.9
21
7335
31
0
0
LINE
8
S-DOUGONG
10
30748.9
20
7335
30
0
11
30748.9
21
7685
31
0
0
LINE
8
S-DOUGONG
10
30748.9
20
7685
30
0
11
30028.9
21
7685
31
0
0
LINE
8
S-DOUGONG
10
30028.9
20
7685
30
0
11
30028.9
21
7335
31
0
0
LINE
8
S-DOUGONG
10
29648.9
20
7690
30
0
11
31128.9
21
7690
31
0
0
LINE
8
S-DOUGONG
10
31128.9
20
7690
30
0
11
31128.9
21
7910
31
0
0
LINE
8
S-DOUGONG
10
31128.9
20
7910
30
0
11
29648.9
21
7910
31
0
0
LINE
8
S-DOUGONG
10
29648.9
20
7910
30
0
11
29648.9
21
7690
31
0
0
LINE
8
S-DOUGONG
10
29868.9
20
7980
30
0
11
30908.9
21
7980
31
0
0
LINE
8
S-DOUGONG
10
30908.9
20
7980
30
0
11
30908.9
21
8200
31
0
0
LINE
8
S-DOUGONG
10
30908.9
20
8200
30
0
11
29868.9
21
8200
31
0
0
LINE
8
S-DOUGONG
10
29868.9
20
8200
30
0
11
29868.9
21
7980
31
0
0
LINE
8
S-DOUGONG
10
29828.9
20
8250
30
0
11
30948.9
21
8250
31
0
0
LINE
8
S-DOUGONG
10
30948.9
20
8250
30
0
11
30948.9
21
8430
31
0
0
LINE
8
S-DOUGONG
10
30948.9
20
8430
30
0
11
29828.9
21
8430
31
0
0
LINE
8
S-DOUGONG
10
29828.9
20
8430
30
0
11
29828.9
21
8250
31
0
0
LINE
8
S-BEAM
10
21370
20
6970
30
0
11
30630
21
6970
31
0
0
LINE
8
S-BEAM
10
30630
20
6970
30
0
11
30630
21
7390
31
0
0
LINE
8
S-BEAM
10
30630
20
7390
30
0
11
21370
21
7390
31
0
0
LINE
8
S-BEAM
10
21370
20
7390
30
0
11
21370
21
6970
31
0
0
LINE
8
S-PURLIN
10
21250
20
8380
30
0
11
30750
21
8380
31
0
0
LINE
8
S-PURLIN
10
30750
20
8380
30
0
11
30750
21
8620
31
0
0
LINE
8
S-PURLIN
10
30750
20
8620
30
0
11
21250
21
8620
31
0
0
LINE
8
S-PURLIN
10
21250
20
8620
30
0
11
21250
21
8380
31
0
0
LINE
8
S-ROOF
10
19150
20
7730
30
0
11
21250
21
8500
31
0
0
LINE
8
S-ROOF
10
21250
20
8500
30
0
11
26000
21
10650
31
0
0
LINE
8
S-ROOF
10
26000
20
10650
30
0
11
30750
21
8500
31
0
0
LINE
8
S-ROOF
10
30750
20
8500
30
0
11
32850
21
7730
31
0
0
LINE
8
S-RAFTER
10
19150
20
7620
30
0
11
21250
21
8440
31
0
0
LINE
8
S-RAFTER
10
21250
20
8440
30
0
11
26000
21
10470
31
0
0
LINE
8
S-RAFTER
10
26000
20
10470
30
0
11
30750
21
8440
31
0
0
LINE
8
S-RAFTER
10
30750
20
8440
30
0
11
32850
21
7620
31
0
0
LINE
8
S-RIDGE
10
19150
20
7730
30
0
11
19150
21
7500
31
0
0
LINE
8
S-RIDGE
10
32850
20
7730
30
0
11
32850
21
7500
31
0
0
LINE
8
S-RIDGE
10
25380
20
10650
30
0
11
26620
21
10650
31
0
0
LINE
8
S-RIDGE
10
26620
20
10650
30
0
11
26620
21
11030
31
0
0
LINE
8
S-RIDGE
10
26620
20
11030
30
0
11
25380
21
11030
31
0
0
LINE
8
S-RIDGE
10
25380
20
11030
30
0
11
25380
21
10650
31
0
0
LINE
8
S-RIDGE
10
25740
20
11030
30
0
11
26260
21
11030
31
0
0
LINE
8
S-RIDGE
10
26260
20
11030
30
0
11
26260
21
12080
31
0
0
LINE
8
S-RIDGE
10
26260
20
12080
30
0
11
25740
21
12080
31
0
0
LINE
8
S-RIDGE
10
25740
20
12080
30
0
11
25740
21
11030
31
0
0
CIRCLE
8
S-RIDGE
10
26000
20
12410
30
0
40
420
0
LINE
8
A-RAILING
10
20831.1
20
1820
30
0
11
22391.1
21
1820
31
0
0
LINE
8
A-RAILING
10
20891.1
20
2640
30
0
11
22331.1
21
2640
31
0
0
LINE
8
A-RAILING
10
23402.2
20
1820
30
0
11
24962.2
21
1820
31
0
0
LINE
8
A-RAILING
10
23462.2
20
2640
30
0
11
24902.2
21
2640
31
0
0
LINE
8
A-RAILING
10
27037.8
20
1820
30
0
11
28597.8
21
1820
31
0
0
LINE
8
A-RAILING
10
27097.8
20
2640
30
0
11
28537.8
21
2640
31
0
0
LINE
8
A-RAILING
10
29608.9
20
1820
30
0
11
31168.9
21
1820
31
0
0
LINE
8
A-RAILING
10
29668.9
20
2640
30
0
11
31108.9
21
2640
31
0
0
LINE
8
A-CENTER
10
26000
20
-600
30
0
11
26000
21
13000
31
0
0
LINE
8
A-DIMS
10
19150
20
7500
30
0
11
19150
21
12950
31
0
0
LINE
8
A-DIMS
10
32850
20
7500
30
0
11
32850
21
12950
31
0
0
LINE
8
A-DIMS
10
19150
20
12800
30
0
11
32850
21
12800
31
0
0
LINE
8
A-DIMS
10
19150
20
12800
30
0
11
19040.2374
21
12869.6575
31
0
0
LINE
8
A-DIMS
10
19150
20
12800
30
0
11
19040.2374
21
12730.3425
31
0
0
LINE
8
A-DIMS
10
32850
20
12800
30
0
11
32959.7626
21
12730.3425
31
0
0
LINE
8
A-DIMS
10
32850
20
12800
30
0
11
32959.7626
21
12869.6575
31
0
0
TEXT
8
A-DIMS
10
26000
20
12980
30
0
40
220
1
13700 ROOF OVERALL
50
0
72
1
11
26000
21
12980
31
0
0
LINE
8
A-DIMS
10
21611.1
20
990
30
0
11
21611.1
21
-700
31
0
0
LINE
8
A-DIMS
10
30388.9
20
990
30
0
11
30388.9
21
-700
31
0
0
LINE
8
A-DIMS
10
21611.1
20
-850
30
0
11
30388.9
21
-850
31
0
0
LINE
8
A-DIMS
10
21611.1
20
-850
30
0
11
21501.3374
21
-780.3425
31
0
0
LINE
8
A-DIMS
10
21611.1
20
-850
30
0
11
21501.3374
21
-919.6575
31
0
0
LINE
8
A-DIMS
10
30388.9
20
-850
30
0
11
30498.6626
21
-919.6575
31
0
0
LINE
8
A-DIMS
10
30388.9
20
-850
30
0
11
30498.6626
21
-780.3425
31
0
0
TEXT
8
A-DIMS
10
26000
20
-670
30
0
40
220
1
8778 VISIBLE COLUMN SPAN
50
0
72
1
11
26000
21
-670
31
0
0
LINE
8
A-DIMS
10
32850
20
0
30
0
11
34050
21
0
31
0
0
LINE
8
A-DIMS
10
32850
20
10650
30
0
11
34050
21
10650
31
0
0
LINE
8
A-DIMS
10
34200
20
0
30
0
11
34200
21
10650
31
0
0
LINE
8
A-DIMS
10
34200
20
0
30
0
11
34130.3425
21
-109.7626
31
0
0
LINE
8
A-DIMS
10
34200
20
0
30
0
11
34269.6575
21
-109.7626
31
0
0
LINE
8
A-DIMS
10
34200
20
10650
30
0
11
34269.6575
21
10759.7626
31
0
0
LINE
8
A-DIMS
10
34200
20
10650
30
0
11
34130.3425
21
10759.7626
31
0
0
TEXT
8
A-DIMS
10
33990
20
5325
30
0
40
220
1
10650 APEX
50
90
72
1
11
33990
21
5325
31
0
0
LINE
8
A-DIMS
10
30750
20
0
30
0
11
33400
21
0
31
0
0
LINE
8
A-DIMS
10
30750
20
8500
30
0
11
33400
21
8500
31
0
0
LINE
8
A-DIMS
10
33550
20
0
30
0
11
33550
21
8500
31
0
0
LINE
8
A-DIMS
10
33550
20
0
30
0
11
33480.3425
21
-109.7626
31
0
0
LINE
8
A-DIMS
10
33550
20
0
30
0
11
33619.6575
21
-109.7626
31
0
0
LINE
8
A-DIMS
10
33550
20
8500
30
0
11
33619.6575
21
8609.7626
31
0
0
LINE
8
A-DIMS
10
33550
20
8500
30
0
11
33480.3425
21
8609.7626
31
0
0
TEXT
8
A-DIMS
10
33340
20
4250
30
0
40
220
1
8500 EAVE PURLIN
50
90
72
1
11
33340
21
4250
31
0
0
TEXT
8
A-TITLE
10
17600
20
11800
30
0
40
360
1
A-201  FRONT ELEVATION
50
0
0
TEXT
8
A-ANNO
10
17600
20
11380
30
0
40
200
1
OPEN PAVILION / OCTAGONAL PYRAMIDAL ROOF
50
0
0
LINE
8
A-TITLE
10
17600
20
11200
30
0
11
22800
21
11200
31
0
0
TEXT
8
A-ANNO
10
17600
20
10750
30
0
40
170
1
UNITS: MILLIMETRES | MODEL SPACE 1:1
50
0
0
TEXT
8
A-ANNO
10
17600
20
10480
30
0
40
170
1
RECOMMENDED PLOT: A3 @ 1:50
50
0
0
TEXT
8
A-ANNO
10
17600
20
10210
30
0
40
170
1
PROCEDURAL CONCEPT MODEL - NOT FOR CONSTRUCTION
50
0
0
TEXT
8
A-ANNO
10
17600
20
9940
30
0
40
170
1
VERIFY LOCAL CODES, MATERIAL GRADES AND CONNECTION DESIGN
50
0
0
LINE
8
A-TITLE
10
16000
20
-3000
30
0
11
36000
21
-3000
31
0
0
LINE
8
A-TITLE
10
36000
20
-3000
30
0
11
36000
21
14500
31
0
0
LINE
8
A-TITLE
10
36000
20
14500
30
0
11
16000
21
14500
31
0
0
LINE
8
A-TITLE
10
16000
20
14500
30
0
11
16000
21
-3000
31
0
0
LINE
8
A-TITLE
10
16000
20
-1850
30
0
11
36000
21
-1850
31
0
0
LINE
8
A-TITLE
10
28800
20
-3000
30
0
11
28800
21
-1850
31
0
0
LINE
8
A-TITLE
10
33500
20
-3000
30
0
11
33500
21
-1850
31
0
0
TEXT
8
A-TITLE
10
16350
20
-2340
30
0
40
250
1
MODULAR HERITAGE ASSEMBLY
50
0
0
TEXT
8
A-ANNO
10
16350
20
-2740
30
0
40
160
1
ABSTRACT OCTAGONAL TIMBER PAVILION
50
0
0
TEXT
8
A-TITLE
10
29100
20
-2340
30
0
40
240
1
FRONT ELEVATION
50
0
0
TEXT
8
A-ANNO
10
29100
20
-2740
30
0
40
160
1
UNITS MM | MODEL 1:1 | PLOT 1:50
50
0
0
TEXT
8
A-TITLE
10
33850
20
-2440
30
0
40
360
1
A-201
50
0
0
TEXT
8
A-ANNO
10
33850
20
-2780
30
0
40
150
1
CONCEPT / NOT FOR CONSTRUCTION
50
0
0
LINE
8
S-FOUNDATION
10
-6580
20
-22250
30
0
11
6580
21
-22250
31
0
0
LINE
8
S-FOUNDATION
10
6580
20
-22250
30
0
11
6580
21
-21650
31
0
0
LINE
8
S-FOUNDATION
10
6580
20
-21650
30
0
11
-6580
21
-21650
31
0
0
LINE
8
S-FOUNDATION
10
-6580
20
-21650
30
0
11
-6580
21
-22250
31
0
0
LINE
8
S-FOUNDATION
10
-5950
20
-21670
30
0
11
5950
21
-21670
31
0
0
LINE
8
S-FOUNDATION
10
5950
20
-21670
30
0
11
5950
21
-21290
31
0
0
LINE
8
S-FOUNDATION
10
5950
20
-21290
30
0
11
-5950
21
-21290
31
0
0
LINE
8
S-FOUNDATION
10
-5950
20
-21290
30
0
11
-5950
21
-21670
31
0
0
LINE
8
S-FOUNDATION
10
-5620
20
-21300
30
0
11
5620
21
-21300
31
0
0
LINE
8
S-FOUNDATION
10
5620
20
-21300
30
0
11
5620
21
-21020
31
0
0
LINE
8
S-FOUNDATION
10
5620
20
-21020
30
0
11
-5620
21
-21020
31
0
0
LINE
8
S-FOUNDATION
10
-5620
20
-21020
30
0
11
-5620
21
-21300
31
0
0
LINE
8
S-COLUMN
10
-5130
20
-20640
30
0
11
-5050
21
-14920
31
0
0
LINE
8
S-COLUMN
10
-4370
20
-20640
30
0
11
-4450
21
-14920
31
0
0
LINE
8
S-COLUMN
10
-5130
20
-20640
30
0
11
-4370
21
-20640
31
0
0
LINE
8
S-COLUMN
10
-5050
20
-14920
30
0
11
-4450
21
-14920
31
0
0
LINE
8
S-COLUMN-BASE
10
-5420
20
-21010
30
0
11
-4080
21
-21010
31
0
0
LINE
8
S-COLUMN-BASE
10
-4080
20
-21010
30
0
11
-4080
21
-20670
31
0
0
LINE
8
S-COLUMN-BASE
10
-4080
20
-20670
30
0
11
-5420
21
-20670
31
0
0
LINE
8
S-COLUMN-BASE
10
-5420
20
-20670
30
0
11
-5420
21
-21010
31
0
0
LINE
8
S-COLUMN-BASE
10
-5290
20
-20670
30
0
11
-4210
21
-20670
31
0
0
LINE
8
S-COLUMN-BASE
10
-4210
20
-20670
30
0
11
-4210
21
-20530
31
0
0
LINE
8
S-COLUMN-BASE
10
-4210
20
-20530
30
0
11
-5290
21
-20530
31
0
0
LINE
8
S-COLUMN-BASE
10
-5290
20
-20530
30
0
11
-5290
21
-20670
31
0
0
LINE
8
S-COLUMN
10
4370
20
-20640
30
0
11
4450
21
-14920
31
0
0
LINE
8
S-COLUMN
10
5130
20
-20640
30
0
11
5050
21
-14920
31
0
0
LINE
8
S-COLUMN
10
4370
20
-20640
30
0
11
5130
21
-20640
31
0
0
LINE
8
S-COLUMN
10
4450
20
-14920
30
0
11
5050
21
-14920
31
0
0
LINE
8
S-COLUMN-BASE
10
4080
20
-21010
30
0
11
5420
21
-21010
31
0
0
LINE
8
S-COLUMN-BASE
10
5420
20
-21010
30
0
11
5420
21
-20670
31
0
0
LINE
8
S-COLUMN-BASE
10
5420
20
-20670
30
0
11
4080
21
-20670
31
0
0
LINE
8
S-COLUMN-BASE
10
4080
20
-20670
30
0
11
4080
21
-21010
31
0
0
LINE
8
S-COLUMN-BASE
10
4210
20
-20670
30
0
11
5290
21
-20670
31
0
0
LINE
8
S-COLUMN-BASE
10
5290
20
-20670
30
0
11
5290
21
-20530
31
0
0
LINE
8
S-COLUMN-BASE
10
5290
20
-20530
30
0
11
4210
21
-20530
31
0
0
LINE
8
S-COLUMN-BASE
10
4210
20
-20530
30
0
11
4210
21
-20670
31
0
0
LINE
8
S-DOUGONG
10
-5110
20
-14665
30
0
11
-4390
21
-14665
31
0
0
LINE
8
S-DOUGONG
10
-4390
20
-14665
30
0
11
-4390
21
-14315
31
0
0
LINE
8
S-DOUGONG
10
-4390
20
-14315
30
0
11
-5110
21
-14315
31
0
0
LINE
8
S-DOUGONG
10
-5110
20
-14315
30
0
11
-5110
21
-14665
31
0
0
LINE
8
S-DOUGONG
10
-5490
20
-14310
30
0
11
-4010
21
-14310
31
0
0
LINE
8
S-DOUGONG
10
-4010
20
-14310
30
0
11
-4010
21
-14090
31
0
0
LINE
8
S-DOUGONG
10
-4010
20
-14090
30
0
11
-5490
21
-14090
31
0
0
LINE
8
S-DOUGONG
10
-5490
20
-14090
30
0
11
-5490
21
-14310
31
0
0
LINE
8
S-DOUGONG
10
-5270
20
-14020
30
0
11
-4230
21
-14020
31
0
0
LINE
8
S-DOUGONG
10
-4230
20
-14020
30
0
11
-4230
21
-13800
31
0
0
LINE
8
S-DOUGONG
10
-4230
20
-13800
30
0
11
-5270
21
-13800
31
0
0
LINE
8
S-DOUGONG
10
-5270
20
-13800
30
0
11
-5270
21
-14020
31
0
0
LINE
8
S-DOUGONG
10
-5310
20
-13750
30
0
11
-4190
21
-13750
31
0
0
LINE
8
S-DOUGONG
10
-4190
20
-13750
30
0
11
-4190
21
-13570
31
0
0
LINE
8
S-DOUGONG
10
-4190
20
-13570
30
0
11
-5310
21
-13570
31
0
0
LINE
8
S-DOUGONG
10
-5310
20
-13570
30
0
11
-5310
21
-13750
31
0
0
LINE
8
S-DOUGONG
10
4390
20
-14665
30
0
11
5110
21
-14665
31
0
0
LINE
8
S-DOUGONG
10
5110
20
-14665
30
0
11
5110
21
-14315
31
0
0
LINE
8
S-DOUGONG
10
5110
20
-14315
30
0
11
4390
21
-14315
31
0
0
LINE
8
S-DOUGONG
10
4390
20
-14315
30
0
11
4390
21
-14665
31
0
0
LINE
8
S-DOUGONG
10
4010
20
-14310
30
0
11
5490
21
-14310
31
0
0
LINE
8
S-DOUGONG
10
5490
20
-14310
30
0
11
5490
21
-14090
31
0
0
LINE
8
S-DOUGONG
10
5490
20
-14090
30
0
11
4010
21
-14090
31
0
0
LINE
8
S-DOUGONG
10
4010
20
-14090
30
0
11
4010
21
-14310
31
0
0
LINE
8
S-DOUGONG
10
4230
20
-14020
30
0
11
5270
21
-14020
31
0
0
LINE
8
S-DOUGONG
10
5270
20
-14020
30
0
11
5270
21
-13800
31
0
0
LINE
8
S-DOUGONG
10
5270
20
-13800
30
0
11
4230
21
-13800
31
0
0
LINE
8
S-DOUGONG
10
4230
20
-13800
30
0
11
4230
21
-14020
31
0
0
LINE
8
S-DOUGONG
10
4190
20
-13750
30
0
11
5310
21
-13750
31
0
0
LINE
8
S-DOUGONG
10
5310
20
-13750
30
0
11
5310
21
-13570
31
0
0
LINE
8
S-DOUGONG
10
5310
20
-13570
30
0
11
4190
21
-13570
31
0
0
LINE
8
S-DOUGONG
10
4190
20
-13570
30
0
11
4190
21
-13750
31
0
0
LINE
8
S-BEAM
10
-4930
20
-15030
30
0
11
4930
21
-15030
31
0
0
LINE
8
S-BEAM
10
4930
20
-15030
30
0
11
4930
21
-14610
31
0
0
LINE
8
S-BEAM
10
4930
20
-14610
30
0
11
-4930
21
-14610
31
0
0
LINE
8
S-BEAM
10
-4930
20
-14610
30
0
11
-4930
21
-15030
31
0
0
LINE
8
S-BEAM
10
-4930
20
-14600
30
0
11
4930
21
-14600
31
0
0
LINE
8
S-BEAM
10
4930
20
-14600
30
0
11
4930
21
-14280
31
0
0
LINE
8
S-BEAM
10
4930
20
-14280
30
0
11
-4930
21
-14280
31
0
0
LINE
8
S-BEAM
10
-4930
20
-14280
30
0
11
-4930
21
-14600
31
0
0
LINE
8
S-PURLIN
10
-4750
20
-13620
30
0
11
4750
21
-13620
31
0
0
LINE
8
S-PURLIN
10
4750
20
-13620
30
0
11
4750
21
-13380
31
0
0
LINE
8
S-PURLIN
10
4750
20
-13380
30
0
11
-4750
21
-13380
31
0
0
LINE
8
S-PURLIN
10
-4750
20
-13380
30
0
11
-4750
21
-13620
31
0
0
LINE
8
S-COLUMN
10
-360
20
-14315
30
0
11
360
21
-14315
31
0
0
LINE
8
S-COLUMN
10
360
20
-14315
30
0
11
360
21
-11765
31
0
0
LINE
8
S-COLUMN
10
360
20
-11765
30
0
11
-360
21
-11765
31
0
0
LINE
8
S-COLUMN
10
-360
20
-11765
30
0
11
-360
21
-14315
31
0
0
LINE
8
S-DOUGONG
10
-410
20
-14315
30
0
11
410
21
-14315
31
0
0
LINE
8
S-DOUGONG
10
410
20
-14315
30
0
11
410
21
-14015
31
0
0
LINE
8
S-DOUGONG
10
410
20
-14015
30
0
11
-410
21
-14015
31
0
0
LINE
8
S-DOUGONG
10
-410
20
-14015
30
0
11
-410
21
-14315
31
0
0
LINE
8
S-DOUGONG
10
-360
20
-11765
30
0
11
360
21
-11765
31
0
0
LINE
8
S-DOUGONG
10
360
20
-11765
30
0
11
360
21
-11485
31
0
0
LINE
8
S-DOUGONG
10
360
20
-11485
30
0
11
-360
21
-11485
31
0
0
LINE
8
S-DOUGONG
10
-360
20
-11485
30
0
11
-360
21
-11765
31
0
0
LINE
8
S-RAFTER
10
-6890
20
-14380
30
0
11
-4750
21
-13500
31
0
0
LINE
8
S-RAFTER
10
-4750
20
-13500
30
0
11
0
21
-11350
31
0
0
LINE
8
S-RAFTER
10
0
20
-11350
30
0
11
4750
21
-13500
31
0
0
LINE
8
S-RAFTER
10
4750
20
-13500
30
0
11
6890
21
-14380
31
0
0
LINE
8
S-ROOF
10
-6890
20
-14250
30
0
11
-4750
21
-13370
31
0
0
LINE
8
S-ROOF
10
-4750
20
-13370
30
0
11
0
21
-11220
31
0
0
LINE
8
S-ROOF
10
0
20
-11220
30
0
11
4750
21
-13370
31
0
0
LINE
8
S-ROOF
10
4750
20
-13370
30
0
11
6890
21
-14250
31
0
0
LINE
8
S-ROOF
10
-6890
20
-14380
30
0
11
-6890
21
-14580
31
0
0
LINE
8
S-ROOF
10
6890
20
-14380
30
0
11
6890
21
-14580
31
0
0
LINE
8
S-RIDGE
10
-620
20
-11350
30
0
11
620
21
-11350
31
0
0
LINE
8
S-RIDGE
10
620
20
-11350
30
0
11
620
21
-10970
31
0
0
LINE
8
S-RIDGE
10
620
20
-10970
30
0
11
-620
21
-10970
31
0
0
LINE
8
S-RIDGE
10
-620
20
-10970
30
0
11
-620
21
-11350
31
0
0
LINE
8
S-RIDGE
10
-260
20
-10970
30
0
11
260
21
-10970
31
0
0
LINE
8
S-RIDGE
10
260
20
-10970
30
0
11
260
21
-9920
31
0
0
LINE
8
S-RIDGE
10
260
20
-9920
30
0
11
-260
21
-9920
31
0
0
LINE
8
S-RIDGE
10
-260
20
-9920
30
0
11
-260
21
-10970
31
0
0
CIRCLE
8
S-RIDGE
10
0
20
-9590
30
0
40
420
0
LINE
8
A-CENTER
10
-8200
20
-22000
30
0
11
8500
21
-22000
31
0
0
LINE
8
A-CENTER
10
0
20
-22600
30
0
11
0
21
-9000
31
0
0
TEXT
8
A-ANNO
10
-7150
20
-15050
30
0
40
190
1
ROOF RAFTER BEARS ON EAVE PURLIN
50
0
0
LINE
8
A-ANNO
10
-5750
20
-14900
30
0
11
-4860
21
-13610
31
0
0
LINE
8
A-ANNO
10
-4860
20
-13610
30
0
11
-4750.4339
21
-13561.0586
31
0
0
LINE
8
A-ANNO
10
-4860
20
-13610
30
0
11
-4857.6325
21
-13490.0234
31
0
0
TEXT
8
A-ANNO
10
700
20
-12750
30
0
40
190
1
CENTRAL KINGPOST
50
0
0
LINE
8
A-ANNO
10
650
20
-12800
30
0
11
360
21
-12800
31
0
0
TEXT
8
A-ANNO
10
-1600
20
-14520
30
0
40
190
1
DIAMETRAL SUPPORT BEAM
50
0
0
TEXT
8
A-ANNO
10
-7800
20
-19500
30
0
40
190
1
OPEN PERIMETER + RAILING
50
0
0
LINE
8
A-DIMS
10
-4750
20
-21010
30
0
11
-4750
21
-22700
31
0
0
LINE
8
A-DIMS
10
4750
20
-21010
30
0
11
4750
21
-22700
31
0
0
LINE
8
A-DIMS
10
-4750
20
-22850
30
0
11
4750
21
-22850
31
0
0
LINE
8
A-DIMS
10
-4750
20
-22850
30
0
11
-4859.7626
21
-22780.3425
31
0
0
LINE
8
A-DIMS
10
-4750
20
-22850
30
0
11
-4859.7626
21
-22919.6575
31
0
0
LINE
8
A-DIMS
10
4750
20
-22850
30
0
11
4859.7626
21
-22919.6575
31
0
0
LINE
8
A-DIMS
10
4750
20
-22850
30
0
11
4859.7626
21
-22780.3425
31
0
0
TEXT
8
A-DIMS
10
0
20
-22670
30
0
40
220
1
9500 STRUCTURAL DIAMETER
50
0
72
1
11
0
21
-22670
31
0
0
LINE
8
A-DIMS
10
6890
20
-22000
30
0
11
8150
21
-22000
31
0
0
LINE
8
A-DIMS
10
6890
20
-9590
30
0
11
8150
21
-9590
31
0
0
LINE
8
A-DIMS
10
8300
20
-22000
30
0
11
8300
21
-9590
31
0
0
LINE
8
A-DIMS
10
8300
20
-22000
30
0
11
8230.3425
21
-22109.7626
31
0
0
LINE
8
A-DIMS
10
8300
20
-22000
30
0
11
8369.6575
21
-22109.7626
31
0
0
LINE
8
A-DIMS
10
8300
20
-9590
30
0
11
8369.6575
21
-9480.2374
31
0
0
LINE
8
A-DIMS
10
8300
20
-9590
30
0
11
8230.3425
21
-9480.2374
31
0
0
TEXT
8
A-DIMS
10
8090
20
-15795
30
0
40
220
1
12410 FINIAL TOP
50
90
72
1
11
8090
21
-15795
31
0
0
LINE
8
A-DIMS
10
4750
20
-22000
30
0
11
7450
21
-22000
31
0
0
LINE
8
A-DIMS
10
4750
20
-13500
30
0
11
7450
21
-13500
31
0
0
LINE
8
A-DIMS
10
7600
20
-22000
30
0
11
7600
21
-13500
31
0
0
LINE
8
A-DIMS
10
7600
20
-22000
30
0
11
7530.3425
21
-22109.7626
31
0
0
LINE
8
A-DIMS
10
7600
20
-22000
30
0
11
7669.6575
21
-22109.7626
31
0
0
LINE
8
A-DIMS
10
7600
20
-13500
30
0
11
7669.6575
21
-13390.2374
31
0
0
LINE
8
A-DIMS
10
7600
20
-13500
30
0
11
7530.3425
21
-13390.2374
31
0
0
TEXT
8
A-DIMS
10
7390
20
-17750
30
0
40
220
1
8500 PURLIN
50
90
72
1
11
7390
21
-17750
31
0
0
TEXT
8
A-TITLE
10
-8400
20
-10200
30
0
40
360
1
A-301  SECTION A-A
50
0
0
TEXT
8
A-ANNO
10
-8400
20
-10620
30
0
40
200
1
FOUNDATION -> COLUMN -> BEAM -> PURLIN -> RAFTER
50
0
0
LINE
8
A-TITLE
10
-8400
20
-10800
30
0
11
-3200
21
-10800
31
0
0
TEXT
8
A-ANNO
10
-8400
20
-11250
30
0
40
170
1
UNITS: MILLIMETRES | MODEL SPACE 1:1
50
0
0
TEXT
8
A-ANNO
10
-8400
20
-11520
30
0
40
170
1
RECOMMENDED PLOT: A3 @ 1:50
50
0
0
TEXT
8
A-ANNO
10
-8400
20
-11790
30
0
40
170
1
PROCEDURAL CONCEPT MODEL - NOT FOR CONSTRUCTION
50
0
0
TEXT
8
A-ANNO
10
-8400
20
-12060
30
0
40
170
1
VERIFY LOCAL CODES, MATERIAL GRADES AND CONNECTION DESIGN
50
0
0
LINE
8
A-TITLE
10
-9500
20
-25000
30
0
11
9500
21
-25000
31
0
0
LINE
8
A-TITLE
10
9500
20
-25000
30
0
11
9500
21
-7500
31
0
0
LINE
8
A-TITLE
10
9500
20
-7500
30
0
11
-9500
21
-7500
31
0
0
LINE
8
A-TITLE
10
-9500
20
-7500
30
0
11
-9500
21
-25000
31
0
0
LINE
8
A-TITLE
10
-9500
20
-23850
30
0
11
9500
21
-23850
31
0
0
LINE
8
A-TITLE
10
2300
20
-25000
30
0
11
2300
21
-23850
31
0
0
LINE
8
A-TITLE
10
7000
20
-25000
30
0
11
7000
21
-23850
31
0
0
TEXT
8
A-TITLE
10
-9150
20
-24340
30
0
40
250
1
MODULAR HERITAGE ASSEMBLY
50
0
0
TEXT
8
A-ANNO
10
-9150
20
-24740
30
0
40
160
1
ABSTRACT OCTAGONAL TIMBER PAVILION
50
0
0
TEXT
8
A-TITLE
10
2600
20
-24340
30
0
40
240
1
SECTION A-A
50
0
0
TEXT
8
A-ANNO
10
2600
20
-24740
30
0
40
160
1
UNITS MM | MODEL 1:1 | PLOT 1:50
50
0
0
TEXT
8
A-TITLE
10
7350
20
-24440
30
0
40
360
1
A-301
50
0
0
TEXT
8
A-ANNO
10
7350
20
-24780
30
0
40
150
1
CONCEPT / NOT FOR CONSTRUCTION
50
0
0
LINE
8
S-FOUNDATION
10
31999.6133
20
-30318.9985
30
0
11
26000.3867
21
-30318.9985
31
0
0
LINE
8
S-FOUNDATION
10
26000.3867
20
-30318.9985
30
0
11
21758.293
21
-32768.1725
31
0
0
LINE
8
S-FOUNDATION
10
21758.293
20
-32768.1725
30
0
11
21758.293
21
-36231.8275
31
0
0
LINE
8
S-FOUNDATION
10
21758.293
20
-36231.8275
30
0
11
26000.3867
21
-38681.0015
31
0
0
LINE
8
S-FOUNDATION
10
26000.3867
20
-38681.0015
30
0
11
31999.6133
21
-38681.0015
31
0
0
LINE
8
S-FOUNDATION
10
31999.6133
20
-38681.0015
30
0
11
36241.707
21
-36231.8275
31
0
0
LINE
8
S-FOUNDATION
10
36241.707
20
-36231.8275
30
0
11
36241.707
21
-32768.1725
31
0
0
LINE
8
S-FOUNDATION
10
36241.707
20
-32768.1725
30
0
11
31999.6133
21
-30318.9985
31
0
0
LINE
8
S-FOUNDATION
10
31788.7029
20
-30232.9752
30
0
11
26211.2971
21
-30232.9752
31
0
0
LINE
8
S-FOUNDATION
10
26211.2971
20
-30232.9752
30
0
11
22267.4755
21
-32509.9416
31
0
0
LINE
8
S-FOUNDATION
10
22267.4755
20
-32509.9416
30
0
11
22267.4755
21
-35730.0584
31
0
0
LINE
8
S-FOUNDATION
10
22267.4755
20
-35730.0584
30
0
11
26211.2971
21
-38007.0248
31
0
0
LINE
8
S-FOUNDATION
10
26211.2971
20
-38007.0248
30
0
11
31788.7029
21
-38007.0248
31
0
0
LINE
8
S-FOUNDATION
10
31788.7029
20
-38007.0248
30
0
11
35732.5245
21
-35730.0584
31
0
0
LINE
8
S-FOUNDATION
10
35732.5245
20
-35730.0584
30
0
11
35732.5245
21
-32509.9416
31
0
0
LINE
8
S-FOUNDATION
10
35732.5245
20
-32509.9416
30
0
11
31788.7029
21
-30232.9752
31
0
0
LINE
8
S-FOUNDATION
10
31634.0354
20
-30068.5581
30
0
11
26365.9646
21
-30068.5581
31
0
0
LINE
8
S-FOUNDATION
10
26365.9646
20
-30068.5581
30
0
11
22640.876
21
-32219.239
31
0
0
LINE
8
S-FOUNDATION
10
22640.876
20
-32219.239
30
0
11
22640.876
21
-35260.761
31
0
0
LINE
8
S-FOUNDATION
10
22640.876
20
-35260.761
30
0
11
26365.9646
21
-37411.4419
31
0
0
LINE
8
S-FOUNDATION
10
26365.9646
20
-37411.4419
30
0
11
31634.0354
21
-37411.4419
31
0
0
LINE
8
S-FOUNDATION
10
31634.0354
20
-37411.4419
30
0
11
35359.124
21
-35260.761
31
0
0
LINE
8
S-FOUNDATION
10
35359.124
20
-35260.761
30
0
11
35359.124
21
-32219.239
31
0
0
LINE
8
S-FOUNDATION
10
35359.124
20
-32219.239
30
0
11
31634.0354
21
-30068.5581
31
0
0
LINE
8
S-COLUMN
10
31226.2755
20
-27436.913
30
0
11
31226.2755
21
-21716.913
31
0
0
CIRCLE
8
S-COLUMN-BASE
10
31226.2755
20
-27736.913
30
0
40
180
0
LINE
8
S-COLUMN
10
26773.7245
20
-27436.913
30
0
11
26773.7245
21
-21716.913
31
0
0
CIRCLE
8
S-COLUMN-BASE
10
26773.7245
20
-27736.913
30
0
40
180
0
LINE
8
S-COLUMN
10
23625.2956
20
-29254.6593
30
0
11
23625.2956
21
-23534.6593
31
0
0
CIRCLE
8
S-COLUMN-BASE
10
23625.2956
20
-29554.6593
30
0
40
180
0
LINE
8
S-COLUMN
10
23625.2956
20
-31825.3407
30
0
11
23625.2956
21
-26105.3407
31
0
0
CIRCLE
8
S-COLUMN-BASE
10
23625.2956
20
-32125.3407
30
0
40
180
0
LINE
8
S-COLUMN
10
26773.7245
20
-33643.087
30
0
11
26773.7245
21
-27923.087
31
0
0
CIRCLE
8
S-COLUMN-BASE
10
26773.7245
20
-33943.087
30
0
40
180
0
LINE
8
S-COLUMN
10
31226.2755
20
-33643.087
30
0
11
31226.2755
21
-27923.087
31
0
0
CIRCLE
8
S-COLUMN-BASE
10
31226.2755
20
-33943.087
30
0
40
180
0
LINE
8
S-COLUMN
10
34374.7044
20
-31825.3407
30
0
11
34374.7044
21
-26105.3407
31
0
0
CIRCLE
8
S-COLUMN-BASE
10
34374.7044
20
-32125.3407
30
0
40
180
0
LINE
8
S-COLUMN
10
34374.7044
20
-29254.6593
30
0
11
34374.7044
21
-23534.6593
31
0
0
CIRCLE
8
S-COLUMN-BASE
10
34374.7044
20
-29554.6593
30
0
40
180
0
LINE
8
S-BEAM
10
31226.2755
20
-20296.913
30
0
11
26773.7245
21
-20296.913
31
0
0
LINE
8
S-BEAM
10
26773.7245
20
-20296.913
30
0
11
23625.2956
21
-22114.6593
31
0
0
LINE
8
S-BEAM
10
23625.2956
20
-22114.6593
30
0
11
23625.2956
21
-24685.3407
31
0
0
LINE
8
S-BEAM
10
23625.2956
20
-24685.3407
30
0
11
26773.7245
21
-26503.087
31
0
0
LINE
8
S-BEAM
10
26773.7245
20
-26503.087
30
0
11
31226.2755
21
-26503.087
31
0
0
LINE
8
S-BEAM
10
31226.2755
20
-26503.087
30
0
11
34374.7044
21
-24685.3407
31
0
0
LINE
8
S-BEAM
10
34374.7044
20
-24685.3407
30
0
11
34374.7044
21
-22114.6593
31
0
0
LINE
8
S-BEAM
10
34374.7044
20
-22114.6593
30
0
11
31226.2755
21
-20296.913
31
0
0
LINE
8
S-BEAM
10
31226.2755
20
-19696.913
30
0
11
26773.7245
21
-25903.087
31
0
0
LINE
8
S-BEAM
10
26773.7245
20
-19696.913
30
0
11
31226.2755
21
-25903.087
31
0
0
LINE
8
S-BEAM
10
23625.2956
20
-21514.6593
30
0
11
34374.7044
21
-24085.3407
31
0
0
LINE
8
S-BEAM
10
23625.2956
20
-24085.3407
30
0
11
34374.7044
21
-21514.6593
31
0
0
LINE
8
S-DOUGONG
10
30986.2755
20
-17226.913
30
0
11
31466.2755
21
-17226.913
31
0
0
LINE
8
S-DOUGONG
10
31466.2755
20
-17226.913
30
0
11
31466.2755
21
-16866.913
31
0
0
LINE
8
S-DOUGONG
10
31466.2755
20
-16866.913
30
0
11
30986.2755
21
-16866.913
31
0
0
LINE
8
S-DOUGONG
10
30986.2755
20
-16866.913
30
0
11
30986.2755
21
-17226.913
31
0
0
LINE
8
S-DOUGONG
10
30706.2755
20
-17046.913
30
0
11
31746.2755
21
-17046.913
31
0
0
LINE
8
S-DOUGONG
10
26533.7245
20
-17226.913
30
0
11
27013.7245
21
-17226.913
31
0
0
LINE
8
S-DOUGONG
10
27013.7245
20
-17226.913
30
0
11
27013.7245
21
-16866.913
31
0
0
LINE
8
S-DOUGONG
10
27013.7245
20
-16866.913
30
0
11
26533.7245
21
-16866.913
31
0
0
LINE
8
S-DOUGONG
10
26533.7245
20
-16866.913
30
0
11
26533.7245
21
-17226.913
31
0
0
LINE
8
S-DOUGONG
10
26253.7245
20
-17046.913
30
0
11
27293.7245
21
-17046.913
31
0
0
LINE
8
S-DOUGONG
10
23385.2956
20
-19044.6593
30
0
11
23865.2956
21
-19044.6593
31
0
0
LINE
8
S-DOUGONG
10
23865.2956
20
-19044.6593
30
0
11
23865.2956
21
-18684.6593
31
0
0
LINE
8
S-DOUGONG
10
23865.2956
20
-18684.6593
30
0
11
23385.2956
21
-18684.6593
31
0
0
LINE
8
S-DOUGONG
10
23385.2956
20
-18684.6593
30
0
11
23385.2956
21
-19044.6593
31
0
0
LINE
8
S-DOUGONG
10
23105.2956
20
-18864.6593
30
0
11
24145.2956
21
-18864.6593
31
0
0
LINE
8
S-DOUGONG
10
23385.2956
20
-21615.3407
30
0
11
23865.2956
21
-21615.3407
31
0
0
LINE
8
S-DOUGONG
10
23865.2956
20
-21615.3407
30
0
11
23865.2956
21
-21255.3407
31
0
0
LINE
8
S-DOUGONG
10
23865.2956
20
-21255.3407
30
0
11
23385.2956
21
-21255.3407
31
0
0
LINE
8
S-DOUGONG
10
23385.2956
20
-21255.3407
30
0
11
23385.2956
21
-21615.3407
31
0
0
LINE
8
S-DOUGONG
10
23105.2956
20
-21435.3407
30
0
11
24145.2956
21
-21435.3407
31
0
0
LINE
8
S-DOUGONG
10
26533.7245
20
-23433.087
30
0
11
27013.7245
21
-23433.087
31
0
0
LINE
8
S-DOUGONG
10
27013.7245
20
-23433.087
30
0
11
27013.7245
21
-23073.087
31
0
0
LINE
8
S-DOUGONG
10
27013.7245
20
-23073.087
30
0
11
26533.7245
21
-23073.087
31
0
0
LINE
8
S-DOUGONG
10
26533.7245
20
-23073.087
30
0
11
26533.7245
21
-23433.087
31
0
0
LINE
8
S-DOUGONG
10
26253.7245
20
-23253.087
30
0
11
27293.7245
21
-23253.087
31
0
0
LINE
8
S-DOUGONG
10
30986.2755
20
-23433.087
30
0
11
31466.2755
21
-23433.087
31
0
0
LINE
8
S-DOUGONG
10
31466.2755
20
-23433.087
30
0
11
31466.2755
21
-23073.087
31
0
0
LINE
8
S-DOUGONG
10
31466.2755
20
-23073.087
30
0
11
30986.2755
21
-23073.087
31
0
0
LINE
8
S-DOUGONG
10
30986.2755
20
-23073.087
30
0
11
30986.2755
21
-23433.087
31
0
0
LINE
8
S-DOUGONG
10
30706.2755
20
-23253.087
30
0
11
31746.2755
21
-23253.087
31
0
0
LINE
8
S-DOUGONG
10
34134.7044
20
-21615.3407
30
0
11
34614.7044
21
-21615.3407
31
0
0
LINE
8
S-DOUGONG
10
34614.7044
20
-21615.3407
30
0
11
34614.7044
21
-21255.3407
31
0
0
LINE
8
S-DOUGONG
10
34614.7044
20
-21255.3407
30
0
11
34134.7044
21
-21255.3407
31
0
0
LINE
8
S-DOUGONG
10
34134.7044
20
-21255.3407
30
0
11
34134.7044
21
-21615.3407
31
0
0
LINE
8
S-DOUGONG
10
33854.7044
20
-21435.3407
30
0
11
34894.7044
21
-21435.3407
31
0
0
LINE
8
S-DOUGONG
10
34134.7044
20
-19044.6593
30
0
11
34614.7044
21
-19044.6593
31
0
0
LINE
8
S-DOUGONG
10
34614.7044
20
-19044.6593
30
0
11
34614.7044
21
-18684.6593
31
0
0
LINE
8
S-DOUGONG
10
34614.7044
20
-18684.6593
30
0
11
34134.7044
21
-18684.6593
31
0
0
LINE
8
S-DOUGONG
10
34134.7044
20
-18684.6593
30
0
11
34134.7044
21
-19044.6593
31
0
0
LINE
8
S-DOUGONG
10
33854.7044
20
-18864.6593
30
0
11
34894.7044
21
-18864.6593
31
0
0
LINE
8
S-PURLIN
10
31226.2755
20
-14296.913
30
0
11
26773.7245
21
-14296.913
31
0
0
LINE
8
S-PURLIN
10
26773.7245
20
-14296.913
30
0
11
23625.2956
21
-16114.6593
31
0
0
LINE
8
S-PURLIN
10
23625.2956
20
-16114.6593
30
0
11
23625.2956
21
-18685.3407
31
0
0
LINE
8
S-PURLIN
10
23625.2956
20
-18685.3407
30
0
11
26773.7245
21
-20503.087
31
0
0
LINE
8
S-PURLIN
10
26773.7245
20
-20503.087
30
0
11
31226.2755
21
-20503.087
31
0
0
LINE
8
S-PURLIN
10
31226.2755
20
-20503.087
30
0
11
34374.7044
21
-18685.3407
31
0
0
LINE
8
S-PURLIN
10
34374.7044
20
-18685.3407
30
0
11
34374.7044
21
-16114.6593
31
0
0
LINE
8
S-PURLIN
10
34374.7044
20
-16114.6593
30
0
11
31226.2755
21
-14296.913
31
0
0
LINE
8
S-RAFTER
10
32229.2711
20
-10598.8906
30
0
11
29000
21
-12050
31
0
0
LINE
8
S-RAFTER
10
29000
20
-10397.7399
30
0
11
29000
21
-12050
31
0
0
LINE
8
S-RAFTER
10
25770.7289
20
-10598.8906
30
0
11
29000
21
-12050
31
0
0
LINE
8
S-RAFTER
10
23240.9311
20
-11775
30
0
11
29000
21
-12050
31
0
0
LINE
8
S-RAFTER
10
21203.8498
20
-13235.5794
30
0
11
29000
21
-12050
31
0
0
LINE
8
S-RAFTER
10
20855.4466
20
-15100
30
0
11
29000
21
-12050
31
0
0
LINE
8
S-RAFTER
10
21203.8498
20
-16964.4206
30
0
11
29000
21
-12050
31
0
0
LINE
8
S-RAFTER
10
23240.9311
20
-18425
30
0
11
29000
21
-12050
31
0
0
LINE
8
S-RAFTER
10
25770.7289
20
-19601.1094
30
0
11
29000
21
-12050
31
0
0
LINE
8
S-RAFTER
10
29000
20
-19802.2601
30
0
11
29000
21
-12050
31
0
0
LINE
8
S-RAFTER
10
32229.2711
20
-19601.1094
30
0
11
29000
21
-12050
31
0
0
LINE
8
S-RAFTER
10
34759.0689
20
-18425
30
0
11
29000
21
-12050
31
0
0
LINE
8
S-RAFTER
10
36796.1502
20
-16964.4206
30
0
11
29000
21
-12050
31
0
0
LINE
8
S-RAFTER
10
37144.5534
20
-15100
30
0
11
29000
21
-12050
31
0
0
LINE
8
S-RAFTER
10
36796.1502
20
-13235.5794
30
0
11
29000
21
-12050
31
0
0
LINE
8
S-RAFTER
10
34759.0689
20
-11775
30
0
11
29000
21
-12050
31
0
0
LINE
8
S-ROOF
10
32210.5236
20
-5225.0218
30
0
11
25789.4764
21
-5225.0218
31
0
0
LINE
8
S-ROOF
10
25789.4764
20
-5225.0218
30
0
11
21249.1105
21
-7846.4034
31
0
0
LINE
8
S-ROOF
10
21249.1105
20
-7846.4034
30
0
11
21249.1105
21
-11553.5966
31
0
0
LINE
8
S-ROOF
10
21249.1105
20
-11553.5966
30
0
11
25789.4764
21
-14174.9782
31
0
0
LINE
8
S-ROOF
10
25789.4764
20
-14174.9782
30
0
11
32210.5236
21
-14174.9782
31
0
0
LINE
8
S-ROOF
10
32210.5236
20
-14174.9782
30
0
11
36750.8895
21
-11553.5966
31
0
0
LINE
8
S-ROOF
10
36750.8895
20
-11553.5966
30
0
11
36750.8895
21
-7846.4034
31
0
0
LINE
8
S-ROOF
10
36750.8895
20
-7846.4034
30
0
11
32210.5236
21
-5225.0218
31
0
0
LINE
8
S-RIDGE
10
32210.5236
20
-5225.0218
30
0
11
29000
21
-6650
31
0
0
LINE
8
S-RIDGE
10
25789.4764
20
-5225.0218
30
0
11
29000
21
-6650
31
0
0
LINE
8
S-RIDGE
10
21249.1105
20
-7846.4034
30
0
11
29000
21
-6650
31
0
0
LINE
8
S-RIDGE
10
21249.1105
20
-11553.5966
30
0
11
29000
21
-6650
31
0
0
LINE
8
S-RIDGE
10
25789.4764
20
-14174.9782
30
0
11
29000
21
-6650
31
0
0
LINE
8
S-RIDGE
10
32210.5236
20
-14174.9782
30
0
11
29000
21
-6650
31
0
0
LINE
8
S-RIDGE
10
36750.8895
20
-11553.5966
30
0
11
29000
21
-6650
31
0
0
LINE
8
S-RIDGE
10
36750.8895
20
-7846.4034
30
0
11
29000
21
-6650
31
0
0
LINE
8
S-RIDGE
10
29000
20
-6600
30
0
11
29000
21
-4850
31
0
0
CIRCLE
8
S-RIDGE
10
29000
20
-4550
30
0
40
260
0
CIRCLE
8
S-FOUNDATION
10
40600
20
-33300
30
0
40
130
0
TEXT
8
A-ANNO
10
40880
20
-33380
30
0
40
190
1
01 FOUNDATION
50
0
0
LINE
8
A-DIMS
10
40600
20
-33140
30
0
11
40600
21
-30460
31
0
0
LINE
8
A-DIMS
10
40600
20
-30460
30
0
11
40541.0591
21
-30552.8761
31
0
0
LINE
8
A-DIMS
10
40600
20
-30460
30
0
11
40658.9409
21
-30552.8761
31
0
0
CIRCLE
8
S-COLUMN
10
40600
20
-30300
30
0
40
130
0
TEXT
8
A-ANNO
10
40880
20
-30380
30
0
40
190
1
02 BASES + COLUMNS
50
0
0
LINE
8
A-DIMS
10
40600
20
-30140
30
0
11
40600
21
-24260
31
0
0
LINE
8
A-DIMS
10
40600
20
-24260
30
0
11
40541.0591
21
-24352.8761
31
0
0
LINE
8
A-DIMS
10
40600
20
-24260
30
0
11
40658.9409
21
-24352.8761
31
0
0
CIRCLE
8
S-BEAM
10
40600
20
-24100
30
0
40
130
0
TEXT
8
A-ANNO
10
40880
20
-24180
30
0
40
190
1
03 RING + CROSS BEAMS
50
0
0
LINE
8
A-DIMS
10
40600
20
-23940
30
0
11
40600
21
-20960
31
0
0
LINE
8
A-DIMS
10
40600
20
-20960
30
0
11
40541.0591
21
-21052.8761
31
0
0
LINE
8
A-DIMS
10
40600
20
-20960
30
0
11
40658.9409
21
-21052.8761
31
0
0
CIRCLE
8
S-DOUGONG
10
40600
20
-20800
30
0
40
130
0
TEXT
8
A-ANNO
10
40880
20
-20880
30
0
40
190
1
04 DOUGONG
50
0
0
LINE
8
A-DIMS
10
40600
20
-20640
30
0
11
40600
21
-18060
31
0
0
LINE
8
A-DIMS
10
40600
20
-18060
30
0
11
40541.0591
21
-18152.8761
31
0
0
LINE
8
A-DIMS
10
40600
20
-18060
30
0
11
40658.9409
21
-18152.8761
31
0
0
CIRCLE
8
S-PURLIN
10
40600
20
-17900
30
0
40
130
0
TEXT
8
A-ANNO
10
40880
20
-17980
30
0
40
190
1
05 EAVE PURLIN
50
0
0
LINE
8
A-DIMS
10
40600
20
-17740
30
0
11
40600
21
-14160
31
0
0
LINE
8
A-DIMS
10
40600
20
-14160
30
0
11
40541.0591
21
-14252.8761
31
0
0
LINE
8
A-DIMS
10
40600
20
-14160
30
0
11
40658.9409
21
-14252.8761
31
0
0
CIRCLE
8
S-RAFTER
10
40600
20
-14000
30
0
40
130
0
TEXT
8
A-ANNO
10
40880
20
-14080
30
0
40
190
1
06 RADIAL RAFTERS
50
0
0
LINE
8
A-DIMS
10
40600
20
-13840
30
0
11
40600
21
-8560
31
0
0
LINE
8
A-DIMS
10
40600
20
-8560
30
0
11
40541.0591
21
-8652.8761
31
0
0
LINE
8
A-DIMS
10
40600
20
-8560
30
0
11
40658.9409
21
-8652.8761
31
0
0
CIRCLE
8
S-ROOF
10
40600
20
-8400
30
0
40
130
0
TEXT
8
A-ANNO
10
40880
20
-8480
30
0
40
190
1
07 ROOF + RIDGES
50
0
0
LINE
8
A-DIMS
10
40600
20
-8240
30
0
11
40600
21
-5460
31
0
0
LINE
8
A-DIMS
10
40600
20
-5460
30
0
11
40541.0591
21
-5552.8761
31
0
0
LINE
8
A-DIMS
10
40600
20
-5460
30
0
11
40658.9409
21
-5552.8761
31
0
0
CIRCLE
8
S-RIDGE
10
40600
20
-5300
30
0
40
130
0
TEXT
8
A-ANNO
10
40880
20
-5380
30
0
40
190
1
08 FINIAL
50
0
0
TEXT
8
A-TITLE
10
16600
20
-5200
30
0
40
360
1
A-401  EXPLODED AXONOMETRIC
50
0
0
TEXT
8
A-ANNO
10
16600
20
-5620
30
0
40
200
1
91 INDEPENDENT COMPONENTS / DATA-DRIVEN SUPPORT ORDER
50
0
0
LINE
8
A-TITLE
10
16600
20
-5800
30
0
11
21800
21
-5800
31
0
0
TEXT
8
A-ANNO
10
16600
20
-6300
30
0
40
170
1
UNITS: MILLIMETRES | MODEL SPACE 1:1
50
0
0
TEXT
8
A-ANNO
10
16600
20
-6570
30
0
40
170
1
RECOMMENDED PLOT: A3 @ 1:50
50
0
0
TEXT
8
A-ANNO
10
16600
20
-6840
30
0
40
170
1
PROCEDURAL CONCEPT MODEL - NOT FOR CONSTRUCTION
50
0
0
TEXT
8
A-ANNO
10
16600
20
-7110
30
0
40
170
1
VERIFY LOCAL CODES, MATERIAL GRADES AND CONNECTION DESIGN
50
0
0
LINE
8
A-TITLE
10
13500
20
-37500
30
0
11
46500
21
-37500
31
0
0
LINE
8
A-TITLE
10
46500
20
-37500
30
0
11
46500
21
-7500
31
0
0
LINE
8
A-TITLE
10
46500
20
-7500
30
0
11
13500
21
-7500
31
0
0
LINE
8
A-TITLE
10
13500
20
-7500
30
0
11
13500
21
-37500
31
0
0
LINE
8
A-TITLE
10
13500
20
-36350
30
0
11
46500
21
-36350
31
0
0
LINE
8
A-TITLE
10
39300
20
-37500
30
0
11
39300
21
-36350
31
0
0
LINE
8
A-TITLE
10
44000
20
-37500
30
0
11
44000
21
-36350
31
0
0
TEXT
8
A-TITLE
10
13850
20
-36840
30
0
40
250
1
MODULAR HERITAGE ASSEMBLY
50
0
0
TEXT
8
A-ANNO
10
13850
20
-37240
30
0
40
160
1
ABSTRACT OCTAGONAL TIMBER PAVILION
50
0
0
TEXT
8
A-TITLE
10
39600
20
-36840
30
0
40
240
1
EXPLODED AXONOMETRIC
50
0
0
TEXT
8
A-ANNO
10
39600
20
-37240
30
0
40
160
1
UNITS MM | MODEL 1:1 | PLOT 1:50
50
0
0
TEXT
8
A-TITLE
10
44350
20
-36940
30
0
40
360
1
A-401
50
0
0
TEXT
8
A-ANNO
10
44350
20
-37280
30
0
40
150
1
CONCEPT / NOT FOR CONSTRUCTION
50
0
0
ENDSEC
0
EOF
