0
SECTION
2
HEADER
9
$ACADVER
1
AC1009
9
$DWGCODEPAGE
3
ANSI_1252
9
$INSUNITS
70
4
9
$EXTMIN
10
-13000
20
-3500
30
0
9
$EXTMAX
10
14200
20
30000
30
0
0
ENDSEC
0
SECTION
2
TABLES
0
TABLE
2
LTYPE
70
2
0
LTYPE
2
CONTINUOUS
70
0
3
Solid line
72
65
73
0
40
0.0
0
LTYPE
2
DASHED
70
0
3
Dashed __ __
72
65
73
2
40
12.0
49
8.0
74
0
49
-4.0
74
0
0
ENDTAB
0
TABLE
2
LAYER
70
15
0
LAYER
2
A-TITLE
70
0
62
7
6
CONTINUOUS
0
LAYER
2
A-ANNO
70
0
62
7
6
CONTINUOUS
0
LAYER
2
A-DIMS
70
0
62
3
6
CONTINUOUS
0
LAYER
2
A-CENTER
70
0
62
4
6
CONTINUOUS
0
LAYER
2
A-HIDDEN
70
0
62
8
6
DASHED
0
LAYER
2
A-RAILING
70
0
62
30
6
CONTINUOUS
0
LAYER
2
S-FOUNDATION
70
0
62
8
6
CONTINUOUS
0
LAYER
2
S-COLUMN-BASE
70
0
62
9
6
CONTINUOUS
0
LAYER
2
S-COLUMN
70
0
62
1
6
CONTINUOUS
0
LAYER
2
S-BEAM
70
0
62
30
6
CONTINUOUS
0
LAYER
2
S-DOUGONG
70
0
62
3
6
CONTINUOUS
0
LAYER
2
S-PURLIN
70
0
62
32
6
CONTINUOUS
0
LAYER
2
S-RAFTER
70
0
62
33
6
CONTINUOUS
0
LAYER
2
S-ROOF
70
0
62
5
6
CONTINUOUS
0
LAYER
2
S-RIDGE
70
0
62
2
6
CONTINUOUS
0
ENDTAB
0
ENDSEC
0
SECTION
2
ENTITIES
0
LINE
8
S-FOUNDATION
10
2999.6133
20
4181.0015
30
0
11
-2999.6133
21
4181.0015
31
0
0
LINE
8
S-FOUNDATION
10
-2999.6133
20
4181.0015
30
0
11
-7241.707
21
1731.8275
31
0
0
LINE
8
S-FOUNDATION
10
-7241.707
20
1731.8275
30
0
11
-7241.707
21
-1731.8275
31
0
0
LINE
8
S-FOUNDATION
10
-7241.707
20
-1731.8275
30
0
11
-2999.6133
21
-4181.0015
31
0
0
LINE
8
S-FOUNDATION
10
-2999.6133
20
-4181.0015
30
0
11
2999.6133
21
-4181.0015
31
0
0
LINE
8
S-FOUNDATION
10
2999.6133
20
-4181.0015
30
0
11
7241.707
21
-1731.8275
31
0
0
LINE
8
S-FOUNDATION
10
7241.707
20
-1731.8275
30
0
11
7241.707
21
1731.8275
31
0
0
LINE
8
S-FOUNDATION
10
7241.707
20
1731.8275
30
0
11
2999.6133
21
4181.0015
31
0
0
LINE
8
S-FOUNDATION
10
2788.7029
20
4267.0248
30
0
11
-2788.7029
21
4267.0248
31
0
0
LINE
8
S-FOUNDATION
10
-2788.7029
20
4267.0248
30
0
11
-6732.5245
21
1990.0584
31
0
0
LINE
8
S-FOUNDATION
10
-6732.5245
20
1990.0584
30
0
11
-6732.5245
21
-1230.0584
31
0
0
LINE
8
S-FOUNDATION
10
-6732.5245
20
-1230.0584
30
0
11
-2788.7029
21
-3507.0248
31
0
0
LINE
8
S-FOUNDATION
10
-2788.7029
20
-3507.0248
30
0
11
2788.7029
21
-3507.0248
31
0
0
LINE
8
S-FOUNDATION
10
2788.7029
20
-3507.0248
30
0
11
6732.5245
21
-1230.0584
31
0
0
LINE
8
S-FOUNDATION
10
6732.5245
20
-1230.0584
30
0
11
6732.5245
21
1990.0584
31
0
0
LINE
8
S-FOUNDATION
10
6732.5245
20
1990.0584
30
0
11
2788.7029
21
4267.0248
31
0
0
LINE
8
S-FOUNDATION
10
2634.0354
20
4431.4419
30
0
11
-2634.0354
21
4431.4419
31
0
0
LINE
8
S-FOUNDATION
10
-2634.0354
20
4431.4419
30
0
11
-6359.124
21
2280.761
31
0
0
LINE
8
S-FOUNDATION
10
-6359.124
20
2280.761
30
0
11
-6359.124
21
-760.761
31
0
0
LINE
8
S-FOUNDATION
10
-6359.124
20
-760.761
30
0
11
-2634.0354
21
-2911.4419
31
0
0
LINE
8
S-FOUNDATION
10
-2634.0354
20
-2911.4419
30
0
11
2634.0354
21
-2911.4419
31
0
0
LINE
8
S-FOUNDATION
10
2634.0354
20
-2911.4419
30
0
11
6359.124
21
-760.761
31
0
0
LINE
8
S-FOUNDATION
10
6359.124
20
-760.761
30
0
11
6359.124
21
2280.761
31
0
0
LINE
8
S-FOUNDATION
10
6359.124
20
2280.761
30
0
11
2634.0354
21
4431.4419
31
0
0
LINE
8
S-COLUMN
10
2226.2755
20
7063.087
30
0
11
2226.2755
21
12783.087
31
0
0
CIRCLE
8
S-COLUMN-BASE
10
2226.2755
20
6763.087
30
0
40
180
0
LINE
8
S-COLUMN
10
-2226.2755
20
7063.087
30
0
11
-2226.2755
21
12783.087
31
0
0
CIRCLE
8
S-COLUMN-BASE
10
-2226.2755
20
6763.087
30
0
40
180
0
LINE
8
S-COLUMN
10
-5374.7044
20
5245.3407
30
0
11
-5374.7044
21
10965.3407
31
0
0
CIRCLE
8
S-COLUMN-BASE
10
-5374.7044
20
4945.3407
30
0
40
180
0
LINE
8
S-COLUMN
10
-5374.7044
20
2674.6593
30
0
11
-5374.7044
21
8394.6593
31
0
0
CIRCLE
8
S-COLUMN-BASE
10
-5374.7044
20
2374.6593
30
0
40
180
0
LINE
8
S-COLUMN
10
-2226.2755
20
856.913
30
0
11
-2226.2755
21
6576.913
31
0
0
CIRCLE
8
S-COLUMN-BASE
10
-2226.2755
20
556.913
30
0
40
180
0
LINE
8
S-COLUMN
10
2226.2755
20
856.913
30
0
11
2226.2755
21
6576.913
31
0
0
CIRCLE
8
S-COLUMN-BASE
10
2226.2755
20
556.913
30
0
40
180
0
LINE
8
S-COLUMN
10
5374.7044
20
2674.6593
30
0
11
5374.7044
21
8394.6593
31
0
0
CIRCLE
8
S-COLUMN-BASE
10
5374.7044
20
2374.6593
30
0
40
180
0
LINE
8
S-COLUMN
10
5374.7044
20
5245.3407
30
0
11
5374.7044
21
10965.3407
31
0
0
CIRCLE
8
S-COLUMN-BASE
10
5374.7044
20
4945.3407
30
0
40
180
0
LINE
8
S-BEAM
10
2226.2755
20
14203.087
30
0
11
-2226.2755
21
14203.087
31
0
0
LINE
8
S-BEAM
10
-2226.2755
20
14203.087
30
0
11
-5374.7044
21
12385.3407
31
0
0
LINE
8
S-BEAM
10
-5374.7044
20
12385.3407
30
0
11
-5374.7044
21
9814.6593
31
0
0
LINE
8
S-BEAM
10
-5374.7044
20
9814.6593
30
0
11
-2226.2755
21
7996.913
31
0
0
LINE
8
S-BEAM
10
-2226.2755
20
7996.913
30
0
11
2226.2755
21
7996.913
31
0
0
LINE
8
S-BEAM
10
2226.2755
20
7996.913
30
0
11
5374.7044
21
9814.6593
31
0
0
LINE
8
S-BEAM
10
5374.7044
20
9814.6593
30
0
11
5374.7044
21
12385.3407
31
0
0
LINE
8
S-BEAM
10
5374.7044
20
12385.3407
30
0
11
2226.2755
21
14203.087
31
0
0
LINE
8
S-BEAM
10
2226.2755
20
14803.087
30
0
11
-2226.2755
21
8596.913
31
0
0
LINE
8
S-BEAM
10
-2226.2755
20
14803.087
30
0
11
2226.2755
21
8596.913
31
0
0
LINE
8
S-BEAM
10
-5374.7044
20
12985.3407
30
0
11
5374.7044
21
10414.6593
31
0
0
LINE
8
S-BEAM
10
-5374.7044
20
10414.6593
30
0
11
5374.7044
21
12985.3407
31
0
0
LINE
8
S-DOUGONG
10
1986.2755
20
17273.087
30
0
11
2466.2755
21
17273.087
31
0
0
LINE
8
S-DOUGONG
10
2466.2755
20
17273.087
30
0
11
2466.2755
21
17633.087
31
0
0
LINE
8
S-DOUGONG
10
2466.2755
20
17633.087
30
0
11
1986.2755
21
17633.087
31
0
0
LINE
8
S-DOUGONG
10
1986.2755
20
17633.087
30
0
11
1986.2755
21
17273.087
31
0
0
LINE
8
S-DOUGONG
10
1706.2755
20
17453.087
30
0
11
2746.2755
21
17453.087
31
0
0
LINE
8
S-DOUGONG
10
-2466.2755
20
17273.087
30
0
11
-1986.2755
21
17273.087
31
0
0
LINE
8
S-DOUGONG
10
-1986.2755
20
17273.087
30
0
11
-1986.2755
21
17633.087
31
0
0
LINE
8
S-DOUGONG
10
-1986.2755
20
17633.087
30
0
11
-2466.2755
21
17633.087
31
0
0
LINE
8
S-DOUGONG
10
-2466.2755
20
17633.087
30
0
11
-2466.2755
21
17273.087
31
0
0
LINE
8
S-DOUGONG
10
-2746.2755
20
17453.087
30
0
11
-1706.2755
21
17453.087
31
0
0
LINE
8
S-DOUGONG
10
-5614.7044
20
15455.3407
30
0
11
-5134.7044
21
15455.3407
31
0
0
LINE
8
S-DOUGONG
10
-5134.7044
20
15455.3407
30
0
11
-5134.7044
21
15815.3407
31
0
0
LINE
8
S-DOUGONG
10
-5134.7044
20
15815.3407
30
0
11
-5614.7044
21
15815.3407
31
0
0
LINE
8
S-DOUGONG
10
-5614.7044
20
15815.3407
30
0
11
-5614.7044
21
15455.3407
31
0
0
LINE
8
S-DOUGONG
10
-5894.7044
20
15635.3407
30
0
11
-4854.7044
21
15635.3407
31
0
0
LINE
8
S-DOUGONG
10
-5614.7044
20
12884.6593
30
0
11
-5134.7044
21
12884.6593
31
0
0
LINE
8
S-DOUGONG
10
-5134.7044
20
12884.6593
30
0
11
-5134.7044
21
13244.6593
31
0
0
LINE
8
S-DOUGONG
10
-5134.7044
20
13244.6593
30
0
11
-5614.7044
21
13244.6593
31
0
0
LINE
8
S-DOUGONG
10
-5614.7044
20
13244.6593
30
0
11
-5614.7044
21
12884.6593
31
0
0
LINE
8
S-DOUGONG
10
-5894.7044
20
13064.6593
30
0
11
-4854.7044
21
13064.6593
31
0
0
LINE
8
S-DOUGONG
10
-2466.2755
20
11066.913
30
0
11
-1986.2755
21
11066.913
31
0
0
LINE
8
S-DOUGONG
10
-1986.2755
20
11066.913
30
0
11
-1986.2755
21
11426.913
31
0
0
LINE
8
S-DOUGONG
10
-1986.2755
20
11426.913
30
0
11
-2466.2755
21
11426.913
31
0
0
LINE
8
S-DOUGONG
10
-2466.2755
20
11426.913
30
0
11
-2466.2755
21
11066.913
31
0
0
LINE
8
S-DOUGONG
10
-2746.2755
20
11246.913
30
0
11
-1706.2755
21
11246.913
31
0
0
LINE
8
S-DOUGONG
10
1986.2755
20
11066.913
30
0
11
2466.2755
21
11066.913
31
0
0
LINE
8
S-DOUGONG
10
2466.2755
20
11066.913
30
0
11
2466.2755
21
11426.913
31
0
0
LINE
8
S-DOUGONG
10
2466.2755
20
11426.913
30
0
11
1986.2755
21
11426.913
31
0
0
LINE
8
S-DOUGONG
10
1986.2755
20
11426.913
30
0
11
1986.2755
21
11066.913
31
0
0
LINE
8
S-DOUGONG
10
1706.2755
20
11246.913
30
0
11
2746.2755
21
11246.913
31
0
0
LINE
8
S-DOUGONG
10
5134.7044
20
12884.6593
30
0
11
5614.7044
21
12884.6593
31
0
0
LINE
8
S-DOUGONG
10
5614.7044
20
12884.6593
30
0
11
5614.7044
21
13244.6593
31
0
0
LINE
8
S-DOUGONG
10
5614.7044
20
13244.6593
30
0
11
5134.7044
21
13244.6593
31
0
0
LINE
8
S-DOUGONG
10
5134.7044
20
13244.6593
30
0
11
5134.7044
21
12884.6593
31
0
0
LINE
8
S-DOUGONG
10
4854.7044
20
13064.6593
30
0
11
5894.7044
21
13064.6593
31
0
0
LINE
8
S-DOUGONG
10
5134.7044
20
15455.3407
30
0
11
5614.7044
21
15455.3407
31
0
0
LINE
8
S-DOUGONG
10
5614.7044
20
15455.3407
30
0
11
5614.7044
21
15815.3407
31
0
0
LINE
8
S-DOUGONG
10
5614.7044
20
15815.3407
30
0
11
5134.7044
21
15815.3407
31
0
0
LINE
8
S-DOUGONG
10
5134.7044
20
15815.3407
30
0
11
5134.7044
21
15455.3407
31
0
0
LINE
8
S-DOUGONG
10
4854.7044
20
15635.3407
30
0
11
5894.7044
21
15635.3407
31
0
0
LINE
8
S-PURLIN
10
2226.2755
20
20203.087
30
0
11
-2226.2755
21
20203.087
31
0
0
LINE
8
S-PURLIN
10
-2226.2755
20
20203.087
30
0
11
-5374.7044
21
18385.3407
31
0
0
LINE
8
S-PURLIN
10
-5374.7044
20
18385.3407
30
0
11
-5374.7044
21
15814.6593
31
0
0
LINE
8
S-PURLIN
10
-5374.7044
20
15814.6593
30
0
11
-2226.2755
21
13996.913
31
0
0
LINE
8
S-PURLIN
10
-2226.2755
20
13996.913
30
0
11
2226.2755
21
13996.913
31
0
0
LINE
8
S-PURLIN
10
2226.2755
20
13996.913
30
0
11
5374.7044
21
15814.6593
31
0
0
LINE
8
S-PURLIN
10
5374.7044
20
15814.6593
30
0
11
5374.7044
21
18385.3407
31
0
0
LINE
8
S-PURLIN
10
5374.7044
20
18385.3407
30
0
11
2226.2755
21
20203.087
31
0
0
LINE
8
S-RAFTER
10
3229.2711
20
23901.1094
30
0
11
0
21
22450
31
0
0
LINE
8
S-RAFTER
10
0
20
24102.2601
30
0
11
0
21
22450
31
0
0
LINE
8
S-RAFTER
10
-3229.2711
20
23901.1094
30
0
11
0
21
22450
31
0
0
LINE
8
S-RAFTER
10
-5759.0689
20
22725
30
0
11
0
21
22450
31
0
0
LINE
8
S-RAFTER
10
-7796.1502
20
21264.4206
30
0
11
0
21
22450
31
0
0
LINE
8
S-RAFTER
10
-8144.5534
20
19400
30
0
11
0
21
22450
31
0
0
LINE
8
S-RAFTER
10
-7796.1502
20
17535.5794
30
0
11
0
21
22450
31
0
0
LINE
8
S-RAFTER
10
-5759.0689
20
16075
30
0
11
0
21
22450
31
0
0
LINE
8
S-RAFTER
10
-3229.2711
20
14898.8906
30
0
11
0
21
22450
31
0
0
LINE
8
S-RAFTER
10
0
20
14697.7399
30
0
11
0
21
22450
31
0
0
LINE
8
S-RAFTER
10
3229.2711
20
14898.8906
30
0
11
0
21
22450
31
0
0
LINE
8
S-RAFTER
10
5759.0689
20
16075
30
0
11
0
21
22450
31
0
0
LINE
8
S-RAFTER
10
7796.1502
20
17535.5794
30
0
11
0
21
22450
31
0
0
LINE
8
S-RAFTER
10
8144.5534
20
19400
30
0
11
0
21
22450
31
0
0
LINE
8
S-RAFTER
10
7796.1502
20
21264.4206
30
0
11
0
21
22450
31
0
0
LINE
8
S-RAFTER
10
5759.0689
20
22725
30
0
11
0
21
22450
31
0
0
LINE
8
S-ROOF
10
3210.5236
20
29274.9782
30
0
11
-3210.5236
21
29274.9782
31
0
0
LINE
8
S-ROOF
10
-3210.5236
20
29274.9782
30
0
11
-7750.8895
21
26653.5966
31
0
0
LINE
8
S-ROOF
10
-7750.8895
20
26653.5966
30
0
11
-7750.8895
21
22946.4034
31
0
0
LINE
8
S-ROOF
10
-7750.8895
20
22946.4034
30
0
11
-3210.5236
21
20325.0218
31
0
0
LINE
8
S-ROOF
10
-3210.5236
20
20325.0218
30
0
11
3210.5236
21
20325.0218
31
0
0
LINE
8
S-ROOF
10
3210.5236
20
20325.0218
30
0
11
7750.8895
21
22946.4034
31
0
0
LINE
8
S-ROOF
10
7750.8895
20
22946.4034
30
0
11
7750.8895
21
26653.5966
31
0
0
LINE
8
S-ROOF
10
7750.8895
20
26653.5966
30
0
11
3210.5236
21
29274.9782
31
0
0
LINE
8
S-RIDGE
10
3210.5236
20
29274.9782
30
0
11
0
21
27850
31
0
0
LINE
8
S-RIDGE
10
-3210.5236
20
29274.9782
30
0
11
0
21
27850
31
0
0
LINE
8
S-RIDGE
10
-7750.8895
20
26653.5966
30
0
11
0
21
27850
31
0
0
LINE
8
S-RIDGE
10
-7750.8895
20
22946.4034
30
0
11
0
21
27850
31
0
0
LINE
8
S-RIDGE
10
-3210.5236
20
20325.0218
30
0
11
0
21
27850
31
0
0
LINE
8
S-RIDGE
10
3210.5236
20
20325.0218
30
0
11
0
21
27850
31
0
0
LINE
8
S-RIDGE
10
7750.8895
20
22946.4034
30
0
11
0
21
27850
31
0
0
LINE
8
S-RIDGE
10
7750.8895
20
26653.5966
30
0
11
0
21
27850
31
0
0
LINE
8
S-RIDGE
10
0
20
27900
30
0
11
0
21
29650
31
0
0
CIRCLE
8
S-RIDGE
10
0
20
29950
30
0
40
260
0
CIRCLE
8
S-FOUNDATION
10
11600
20
1200
30
0
40
130
0
TEXT
8
A-ANNO
10
11880
20
1120
30
0
40
190
1
01 FOUNDATION
50
0
0
LINE
8
A-DIMS
10
11600
20
1360
30
0
11
11600
21
4040
31
0
0
LINE
8
A-DIMS
10
11600
20
4040
30
0
11
11541.0591
21
3947.1239
31
0
0
LINE
8
A-DIMS
10
11600
20
4040
30
0
11
11658.9409
21
3947.1239
31
0
0
CIRCLE
8
S-COLUMN
10
11600
20
4200
30
0
40
130
0
TEXT
8
A-ANNO
10
11880
20
4120
30
0
40
190
1
02 BASES + COLUMNS
50
0
0
LINE
8
A-DIMS
10
11600
20
4360
30
0
11
11600
21
10240
31
0
0
LINE
8
A-DIMS
10
11600
20
10240
30
0
11
11541.0591
21
10147.1239
31
0
0
LINE
8
A-DIMS
10
11600
20
10240
30
0
11
11658.9409
21
10147.1239
31
0
0
CIRCLE
8
S-BEAM
10
11600
20
10400
30
0
40
130
0
TEXT
8
A-ANNO
10
11880
20
10320
30
0
40
190
1
03 RING + CROSS BEAMS
50
0
0
LINE
8
A-DIMS
10
11600
20
10560
30
0
11
11600
21
13540
31
0
0
LINE
8
A-DIMS
10
11600
20
13540
30
0
11
11541.0591
21
13447.1239
31
0
0
LINE
8
A-DIMS
10
11600
20
13540
30
0
11
11658.9409
21
13447.1239
31
0
0
CIRCLE
8
S-DOUGONG
10
11600
20
13700
30
0
40
130
0
TEXT
8
A-ANNO
10
11880
20
13620
30
0
40
190
1
04 DOUGONG
50
0
0
LINE
8
A-DIMS
10
11600
20
13860
30
0
11
11600
21
16440
31
0
0
LINE
8
A-DIMS
10
11600
20
16440
30
0
11
11541.0591
21
16347.1239
31
0
0
LINE
8
A-DIMS
10
11600
20
16440
30
0
11
11658.9409
21
16347.1239
31
0
0
CIRCLE
8
S-PURLIN
10
11600
20
16600
30
0
40
130
0
TEXT
8
A-ANNO
10
11880
20
16520
30
0
40
190
1
05 EAVE PURLIN
50
0
0
LINE
8
A-DIMS
10
11600
20
16760
30
0
11
11600
21
20340
31
0
0
LINE
8
A-DIMS
10
11600
20
20340
30
0
11
11541.0591
21
20247.1239
31
0
0
LINE
8
A-DIMS
10
11600
20
20340
30
0
11
11658.9409
21
20247.1239
31
0
0
CIRCLE
8
S-RAFTER
10
11600
20
20500
30
0
40
130
0
TEXT
8
A-ANNO
10
11880
20
20420
30
0
40
190
1
06 RADIAL RAFTERS
50
0
0
LINE
8
A-DIMS
10
11600
20
20660
30
0
11
11600
21
25940
31
0
0
LINE
8
A-DIMS
10
11600
20
25940
30
0
11
11541.0591
21
25847.1239
31
0
0
LINE
8
A-DIMS
10
11600
20
25940
30
0
11
11658.9409
21
25847.1239
31
0
0
CIRCLE
8
S-ROOF
10
11600
20
26100
30
0
40
130
0
TEXT
8
A-ANNO
10
11880
20
26020
30
0
40
190
1
07 ROOF + RIDGES
50
0
0
LINE
8
A-DIMS
10
11600
20
26260
30
0
11
11600
21
29040
31
0
0
LINE
8
A-DIMS
10
11600
20
29040
30
0
11
11541.0591
21
28947.1239
31
0
0
LINE
8
A-DIMS
10
11600
20
29040
30
0
11
11658.9409
21
28947.1239
31
0
0
CIRCLE
8
S-RIDGE
10
11600
20
29200
30
0
40
130
0
TEXT
8
A-ANNO
10
11880
20
29120
30
0
40
190
1
08 FINIAL
50
0
0
TEXT
8
A-TITLE
10
-12400
20
29300
30
0
40
360
1
A-401  EXPLODED AXONOMETRIC
50
0
0
TEXT
8
A-ANNO
10
-12400
20
28880
30
0
40
200
1
91 INDEPENDENT COMPONENTS / DATA-DRIVEN SUPPORT ORDER
50
0
0
LINE
8
A-TITLE
10
-12400
20
28700
30
0
11
-7200
21
28700
31
0
0
TEXT
8
A-ANNO
10
-12400
20
28200
30
0
40
170
1
UNITS: MILLIMETRES | MODEL SPACE 1:1
50
0
0
TEXT
8
A-ANNO
10
-12400
20
27930
30
0
40
170
1
RECOMMENDED PLOT: A3 @ 1:50
50
0
0
TEXT
8
A-ANNO
10
-12400
20
27660
30
0
40
170
1
PROCEDURAL CONCEPT MODEL - NOT FOR CONSTRUCTION
50
0
0
TEXT
8
A-ANNO
10
-12400
20
27390
30
0
40
170
1
VERIFY LOCAL CODES, MATERIAL GRADES AND CONNECTION DESIGN
50
0
0
ENDSEC
0
EOF
