0
SECTION
2
HEADER
9
$ACADVER
1
AC1009
9
$DWGCODEPAGE
3
ANSI_1252
9
$INSUNITS
70
4
9
$EXTMIN
10
-9000
20
-9800
30
0
9
$EXTMAX
10
9000
20
9000
30
0
0
ENDSEC
0
SECTION
2
TABLES
0
TABLE
2
LTYPE
70
2
0
LTYPE
2
CONTINUOUS
70
0
3
Solid line
72
65
73
0
40
0.0
0
LTYPE
2
DASHED
70
0
3
Dashed __ __
72
65
73
2
40
12.0
49
8.0
74
0
49
-4.0
74
0
0
ENDTAB
0
TABLE
2
LAYER
70
15
0
LAYER
2
A-TITLE
70
0
62
7
6
CONTINUOUS
0
LAYER
2
A-ANNO
70
0
62
7
6
CONTINUOUS
0
LAYER
2
A-DIMS
70
0
62
3
6
CONTINUOUS
0
LAYER
2
A-CENTER
70
0
62
4
6
CONTINUOUS
0
LAYER
2
A-HIDDEN
70
0
62
8
6
DASHED
0
LAYER
2
A-RAILING
70
0
62
30
6
CONTINUOUS
0
LAYER
2
S-FOUNDATION
70
0
62
8
6
CONTINUOUS
0
LAYER
2
S-COLUMN-BASE
70
0
62
9
6
CONTINUOUS
0
LAYER
2
S-COLUMN
70
0
62
1
6
CONTINUOUS
0
LAYER
2
S-BEAM
70
0
62
30
6
CONTINUOUS
0
LAYER
2
S-DOUGONG
70
0
62
3
6
CONTINUOUS
0
LAYER
2
S-PURLIN
70
0
62
32
6
CONTINUOUS
0
LAYER
2
S-RAFTER
70
0
62
33
6
CONTINUOUS
0
LAYER
2
S-ROOF
70
0
62
5
6
CONTINUOUS
0
LAYER
2
S-RIDGE
70
0
62
2
6
CONTINUOUS
0
ENDTAB
0
ENDSEC
0
SECTION
2
ENTITIES
0
LINE
8
S-FOUNDATION
10
5912.829
20
2449.174
30
0
11
2449.174
21
5912.829
31
0
0
LINE
8
S-FOUNDATION
10
2449.174
20
5912.829
30
0
11
-2449.174
21
5912.829
31
0
0
LINE
8
S-FOUNDATION
10
-2449.174
20
5912.829
30
0
11
-5912.829
21
2449.174
31
0
0
LINE
8
S-FOUNDATION
10
-5912.829
20
2449.174
30
0
11
-5912.829
21
-2449.174
31
0
0
LINE
8
S-FOUNDATION
10
-5912.829
20
-2449.174
30
0
11
-2449.174
21
-5912.829
31
0
0
LINE
8
S-FOUNDATION
10
-2449.174
20
-5912.829
30
0
11
2449.174
21
-5912.829
31
0
0
LINE
8
S-FOUNDATION
10
2449.174
20
-5912.829
30
0
11
5912.829
21
-2449.174
31
0
0
LINE
8
S-FOUNDATION
10
5912.829
20
-2449.174
30
0
11
5912.829
21
2449.174
31
0
0
LINE
8
S-FOUNDATION
10
5497.0832
20
2276.9664
30
0
11
2276.9664
21
5497.0832
31
0
0
LINE
8
S-FOUNDATION
10
2276.9664
20
5497.0832
30
0
11
-2276.9664
21
5497.0832
31
0
0
LINE
8
S-FOUNDATION
10
-2276.9664
20
5497.0832
30
0
11
-5497.0832
21
2276.9664
31
0
0
LINE
8
S-FOUNDATION
10
-5497.0832
20
2276.9664
30
0
11
-5497.0832
21
-2276.9664
31
0
0
LINE
8
S-FOUNDATION
10
-5497.0832
20
-2276.9664
30
0
11
-2276.9664
21
-5497.0832
31
0
0
LINE
8
S-FOUNDATION
10
-2276.9664
20
-5497.0832
30
0
11
2276.9664
21
-5497.0832
31
0
0
LINE
8
S-FOUNDATION
10
2276.9664
20
-5497.0832
30
0
11
5497.0832
21
-2276.9664
31
0
0
LINE
8
S-FOUNDATION
10
5497.0832
20
-2276.9664
30
0
11
5497.0832
21
2276.9664
31
0
0
LINE
8
S-FOUNDATION
10
5192.203
20
2150.6809
30
0
11
2150.6809
21
5192.203
31
0
0
LINE
8
S-FOUNDATION
10
2150.6809
20
5192.203
30
0
11
-2150.6809
21
5192.203
31
0
0
LINE
8
S-FOUNDATION
10
-2150.6809
20
5192.203
30
0
11
-5192.203
21
2150.6809
31
0
0
LINE
8
S-FOUNDATION
10
-5192.203
20
2150.6809
30
0
11
-5192.203
21
-2150.6809
31
0
0
LINE
8
S-FOUNDATION
10
-5192.203
20
-2150.6809
30
0
11
-2150.6809
21
-5192.203
31
0
0
LINE
8
S-FOUNDATION
10
-2150.6809
20
-5192.203
30
0
11
2150.6809
21
-5192.203
31
0
0
LINE
8
S-FOUNDATION
10
2150.6809
20
-5192.203
30
0
11
5192.203
21
-2150.6809
31
0
0
LINE
8
S-FOUNDATION
10
5192.203
20
-2150.6809
30
0
11
5192.203
21
2150.6809
31
0
0
CIRCLE
8
S-COLUMN-BASE
10
4388.4278
20
1817.7463
30
0
40
560
0
CIRCLE
8
S-COLUMN
10
4388.4278
20
1817.7463
30
0
40
300
0
LINE
8
A-CENTER
10
4308.4278
20
1817.7463
30
0
11
4468.4278
21
1817.7463
31
0
0
LINE
8
A-CENTER
10
4388.4278
20
1737.7463
30
0
11
4388.4278
21
1897.7463
31
0
0
CIRCLE
8
S-COLUMN-BASE
10
1817.7463
20
4388.4278
30
0
40
560
0
CIRCLE
8
S-COLUMN
10
1817.7463
20
4388.4278
30
0
40
300
0
LINE
8
A-CENTER
10
1737.7463
20
4388.4278
30
0
11
1897.7463
21
4388.4278
31
0
0
LINE
8
A-CENTER
10
1817.7463
20
4308.4278
30
0
11
1817.7463
21
4468.4278
31
0
0
CIRCLE
8
S-COLUMN-BASE
10
-1817.7463
20
4388.4278
30
0
40
560
0
CIRCLE
8
S-COLUMN
10
-1817.7463
20
4388.4278
30
0
40
300
0
LINE
8
A-CENTER
10
-1897.7463
20
4388.4278
30
0
11
-1737.7463
21
4388.4278
31
0
0
LINE
8
A-CENTER
10
-1817.7463
20
4308.4278
30
0
11
-1817.7463
21
4468.4278
31
0
0
CIRCLE
8
S-COLUMN-BASE
10
-4388.4278
20
1817.7463
30
0
40
560
0
CIRCLE
8
S-COLUMN
10
-4388.4278
20
1817.7463
30
0
40
300
0
LINE
8
A-CENTER
10
-4468.4278
20
1817.7463
30
0
11
-4308.4278
21
1817.7463
31
0
0
LINE
8
A-CENTER
10
-4388.4278
20
1737.7463
30
0
11
-4388.4278
21
1897.7463
31
0
0
CIRCLE
8
S-COLUMN-BASE
10
-4388.4278
20
-1817.7463
30
0
40
560
0
CIRCLE
8
S-COLUMN
10
-4388.4278
20
-1817.7463
30
0
40
300
0
LINE
8
A-CENTER
10
-4468.4278
20
-1817.7463
30
0
11
-4308.4278
21
-1817.7463
31
0
0
LINE
8
A-CENTER
10
-4388.4278
20
-1897.7463
30
0
11
-4388.4278
21
-1737.7463
31
0
0
CIRCLE
8
S-COLUMN-BASE
10
-1817.7463
20
-4388.4278
30
0
40
560
0
CIRCLE
8
S-COLUMN
10
-1817.7463
20
-4388.4278
30
0
40
300
0
LINE
8
A-CENTER
10
-1897.7463
20
-4388.4278
30
0
11
-1737.7463
21
-4388.4278
31
0
0
LINE
8
A-CENTER
10
-1817.7463
20
-4468.4278
30
0
11
-1817.7463
21
-4308.4278
31
0
0
CIRCLE
8
S-COLUMN-BASE
10
1817.7463
20
-4388.4278
30
0
40
560
0
CIRCLE
8
S-COLUMN
10
1817.7463
20
-4388.4278
30
0
40
300
0
LINE
8
A-CENTER
10
1737.7463
20
-4388.4278
30
0
11
1897.7463
21
-4388.4278
31
0
0
LINE
8
A-CENTER
10
1817.7463
20
-4468.4278
30
0
11
1817.7463
21
-4308.4278
31
0
0
CIRCLE
8
S-COLUMN-BASE
10
4388.4278
20
-1817.7463
30
0
40
560
0
CIRCLE
8
S-COLUMN
10
4388.4278
20
-1817.7463
30
0
40
300
0
LINE
8
A-CENTER
10
4308.4278
20
-1817.7463
30
0
11
4468.4278
21
-1817.7463
31
0
0
LINE
8
A-CENTER
10
4388.4278
20
-1897.7463
30
0
11
4388.4278
21
-1737.7463
31
0
0
LINE
8
S-BEAM
10
4218.7222
20
1648.0407
30
0
11
1648.0407
21
4218.7222
31
0
0
LINE
8
S-BEAM
10
4558.1334
20
1987.4519
30
0
11
1987.4519
21
4558.1334
31
0
0
LINE
8
S-BEAM
10
4218.7222
20
1648.0407
30
0
11
4558.1334
21
1987.4519
31
0
0
LINE
8
S-BEAM
10
1648.0407
20
4218.7222
30
0
11
1987.4519
21
4558.1334
31
0
0
LINE
8
A-RAILING
10
4072.0891
20
1655.6485
30
0
11
1655.6485
21
4072.0891
31
0
0
LINE
8
A-RAILING
10
4178.1551
20
1761.7145
30
0
11
1761.7145
21
4178.1551
31
0
0
LINE
8
A-RAILING
10
4072.0891
20
1655.6485
30
0
11
4178.1551
21
1761.7145
31
0
0
LINE
8
A-RAILING
10
1655.6485
20
4072.0891
30
0
11
1761.7145
21
4178.1551
31
0
0
LINE
8
S-BEAM
10
1817.7463
20
4148.4278
30
0
11
-1817.7463
21
4148.4278
31
0
0
LINE
8
S-BEAM
10
1817.7463
20
4628.4278
30
0
11
-1817.7463
21
4628.4278
31
0
0
LINE
8
S-BEAM
10
1817.7463
20
4148.4278
30
0
11
1817.7463
21
4628.4278
31
0
0
LINE
8
S-BEAM
10
-1817.7463
20
4148.4278
30
0
11
-1817.7463
21
4628.4278
31
0
0
LINE
8
A-RAILING
10
1708.6815
20
4050.1221
30
0
11
-1708.6815
21
4050.1221
31
0
0
LINE
8
A-RAILING
10
1708.6815
20
4200.1221
30
0
11
-1708.6815
21
4200.1221
31
0
0
LINE
8
A-RAILING
10
1708.6815
20
4050.1221
30
0
11
1708.6815
21
4200.1221
31
0
0
LINE
8
A-RAILING
10
-1708.6815
20
4050.1221
30
0
11
-1708.6815
21
4200.1221
31
0
0
LINE
8
S-BEAM
10
-1648.0407
20
4218.7222
30
0
11
-4218.7222
21
1648.0407
31
0
0
LINE
8
S-BEAM
10
-1987.4519
20
4558.1334
30
0
11
-4558.1334
21
1987.4519
31
0
0
LINE
8
S-BEAM
10
-1648.0407
20
4218.7222
30
0
11
-1987.4519
21
4558.1334
31
0
0
LINE
8
S-BEAM
10
-4218.7222
20
1648.0407
30
0
11
-4558.1334
21
1987.4519
31
0
0
LINE
8
A-RAILING
10
-1655.6485
20
4072.0891
30
0
11
-4072.0891
21
1655.6485
31
0
0
LINE
8
A-RAILING
10
-1761.7145
20
4178.1551
30
0
11
-4178.1551
21
1761.7145
31
0
0
LINE
8
A-RAILING
10
-1655.6485
20
4072.0891
30
0
11
-1761.7145
21
4178.1551
31
0
0
LINE
8
A-RAILING
10
-4072.0891
20
1655.6485
30
0
11
-4178.1551
21
1761.7145
31
0
0
LINE
8
S-BEAM
10
-4148.4278
20
1817.7463
30
0
11
-4148.4278
21
-1817.7463
31
0
0
LINE
8
S-BEAM
10
-4628.4278
20
1817.7463
30
0
11
-4628.4278
21
-1817.7463
31
0
0
LINE
8
S-BEAM
10
-4148.4278
20
1817.7463
30
0
11
-4628.4278
21
1817.7463
31
0
0
LINE
8
S-BEAM
10
-4148.4278
20
-1817.7463
30
0
11
-4628.4278
21
-1817.7463
31
0
0
LINE
8
A-RAILING
10
-4050.1221
20
1708.6815
30
0
11
-4050.1221
21
-1708.6815
31
0
0
LINE
8
A-RAILING
10
-4200.1221
20
1708.6815
30
0
11
-4200.1221
21
-1708.6815
31
0
0
LINE
8
A-RAILING
10
-4050.1221
20
1708.6815
30
0
11
-4200.1221
21
1708.6815
31
0
0
LINE
8
A-RAILING
10
-4050.1221
20
-1708.6815
30
0
11
-4200.1221
21
-1708.6815
31
0
0
LINE
8
S-BEAM
10
-4218.7222
20
-1648.0407
30
0
11
-1648.0407
21
-4218.7222
31
0
0
LINE
8
S-BEAM
10
-4558.1334
20
-1987.4519
30
0
11
-1987.4519
21
-4558.1334
31
0
0
LINE
8
S-BEAM
10
-4218.7222
20
-1648.0407
30
0
11
-4558.1334
21
-1987.4519
31
0
0
LINE
8
S-BEAM
10
-1648.0407
20
-4218.7222
30
0
11
-1987.4519
21
-4558.1334
31
0
0
LINE
8
A-RAILING
10
-4072.0891
20
-1655.6485
30
0
11
-1655.6485
21
-4072.0891
31
0
0
LINE
8
A-RAILING
10
-4178.1551
20
-1761.7145
30
0
11
-1761.7145
21
-4178.1551
31
0
0
LINE
8
A-RAILING
10
-4072.0891
20
-1655.6485
30
0
11
-4178.1551
21
-1761.7145
31
0
0
LINE
8
A-RAILING
10
-1655.6485
20
-4072.0891
30
0
11
-1761.7145
21
-4178.1551
31
0
0
LINE
8
S-BEAM
10
-1817.7463
20
-4148.4278
30
0
11
1817.7463
21
-4148.4278
31
0
0
LINE
8
S-BEAM
10
-1817.7463
20
-4628.4278
30
0
11
1817.7463
21
-4628.4278
31
0
0
LINE
8
S-BEAM
10
-1817.7463
20
-4148.4278
30
0
11
-1817.7463
21
-4628.4278
31
0
0
LINE
8
S-BEAM
10
1817.7463
20
-4148.4278
30
0
11
1817.7463
21
-4628.4278
31
0
0
LINE
8
A-RAILING
10
-1708.6815
20
-4050.1221
30
0
11
1708.6815
21
-4050.1221
31
0
0
LINE
8
A-RAILING
10
-1708.6815
20
-4200.1221
30
0
11
1708.6815
21
-4200.1221
31
0
0
LINE
8
A-RAILING
10
-1708.6815
20
-4050.1221
30
0
11
-1708.6815
21
-4200.1221
31
0
0
LINE
8
A-RAILING
10
1708.6815
20
-4050.1221
30
0
11
1708.6815
21
-4200.1221
31
0
0
LINE
8
S-BEAM
10
1648.0407
20
-4218.7222
30
0
11
4218.7222
21
-1648.0407
31
0
0
LINE
8
S-BEAM
10
1987.4519
20
-4558.1334
30
0
11
4558.1334
21
-1987.4519
31
0
0
LINE
8
S-BEAM
10
1648.0407
20
-4218.7222
30
0
11
1987.4519
21
-4558.1334
31
0
0
LINE
8
S-BEAM
10
4218.7222
20
-1648.0407
30
0
11
4558.1334
21
-1987.4519
31
0
0
LINE
8
A-RAILING
10
1655.6485
20
-4072.0891
30
0
11
4072.0891
21
-1655.6485
31
0
0
LINE
8
A-RAILING
10
1761.7145
20
-4178.1551
30
0
11
4178.1551
21
-1761.7145
31
0
0
LINE
8
A-RAILING
10
1655.6485
20
-4072.0891
30
0
11
1761.7145
21
-4178.1551
31
0
0
LINE
8
A-RAILING
10
4072.0891
20
-1655.6485
30
0
11
4178.1551
21
-1761.7145
31
0
0
LINE
8
S-BEAM
10
4148.4278
20
-1817.7463
30
0
11
4148.4278
21
1817.7463
31
0
0
LINE
8
S-BEAM
10
4628.4278
20
-1817.7463
30
0
11
4628.4278
21
1817.7463
31
0
0
LINE
8
S-BEAM
10
4148.4278
20
-1817.7463
30
0
11
4628.4278
21
-1817.7463
31
0
0
LINE
8
S-BEAM
10
4148.4278
20
1817.7463
30
0
11
4628.4278
21
1817.7463
31
0
0
LINE
8
A-RAILING
10
4050.1221
20
-1708.6815
30
0
11
4050.1221
21
1708.6815
31
0
0
LINE
8
A-RAILING
10
4200.1221
20
-1708.6815
30
0
11
4200.1221
21
1708.6815
31
0
0
LINE
8
A-RAILING
10
4050.1221
20
-1708.6815
30
0
11
4200.1221
21
-1708.6815
31
0
0
LINE
8
A-RAILING
10
4050.1221
20
1708.6815
30
0
11
4200.1221
21
1708.6815
31
0
0
LINE
8
S-BEAM
10
4453.484
20
1660.6868
30
0
11
-4323.3716
21
-1974.8058
31
0
0
LINE
8
S-BEAM
10
4323.3716
20
1974.8058
30
0
11
-4453.484
21
-1660.6868
31
0
0
LINE
8
S-BEAM
10
4453.484
20
1660.6868
30
0
11
4323.3716
21
1974.8058
31
0
0
LINE
8
S-BEAM
10
-4323.3716
20
-1974.8058
30
0
11
-4453.484
21
-1660.6868
31
0
0
LINE
8
S-BEAM
10
1974.8058
20
4323.3716
30
0
11
-1660.6868
21
-4453.484
31
0
0
LINE
8
S-BEAM
10
1660.6868
20
4453.484
30
0
11
-1974.8058
21
-4323.3716
31
0
0
LINE
8
S-BEAM
10
1974.8058
20
4323.3716
30
0
11
1660.6868
21
4453.484
31
0
0
LINE
8
S-BEAM
10
-1660.6868
20
-4453.484
30
0
11
-1974.8058
21
-4323.3716
31
0
0
LINE
8
S-BEAM
10
-1660.6868
20
4453.484
30
0
11
1974.8058
21
-4323.3716
31
0
0
LINE
8
S-BEAM
10
-1974.8058
20
4323.3716
30
0
11
1660.6868
21
-4453.484
31
0
0
LINE
8
S-BEAM
10
-1660.6868
20
4453.484
30
0
11
-1974.8058
21
4323.3716
31
0
0
LINE
8
S-BEAM
10
1974.8058
20
-4323.3716
30
0
11
1660.6868
21
-4453.484
31
0
0
LINE
8
S-BEAM
10
-4323.3716
20
1974.8058
30
0
11
4453.484
21
-1660.6868
31
0
0
LINE
8
S-BEAM
10
-4453.484
20
1660.6868
30
0
11
4323.3716
21
-1974.8058
31
0
0
LINE
8
S-BEAM
10
-4323.3716
20
1974.8058
30
0
11
-4453.484
21
1660.6868
31
0
0
LINE
8
S-BEAM
10
4453.484
20
-1660.6868
30
0
11
4323.3716
21
-1974.8058
31
0
0
LINE
8
S-ROOF
10
6328.5748
20
2621.3815
30
0
11
2621.3815
21
6328.5748
31
0
0
LINE
8
S-ROOF
10
2621.3815
20
6328.5748
30
0
11
-2621.3815
21
6328.5748
31
0
0
LINE
8
S-ROOF
10
-2621.3815
20
6328.5748
30
0
11
-6328.5748
21
2621.3815
31
0
0
LINE
8
S-ROOF
10
-6328.5748
20
2621.3815
30
0
11
-6328.5748
21
-2621.3815
31
0
0
LINE
8
S-ROOF
10
-6328.5748
20
-2621.3815
30
0
11
-2621.3815
21
-6328.5748
31
0
0
LINE
8
S-ROOF
10
-2621.3815
20
-6328.5748
30
0
11
2621.3815
21
-6328.5748
31
0
0
LINE
8
S-ROOF
10
2621.3815
20
-6328.5748
30
0
11
6328.5748
21
-2621.3815
31
0
0
LINE
8
S-ROOF
10
6328.5748
20
-2621.3815
30
0
11
6328.5748
21
2621.3815
31
0
0
LINE
8
S-RAFTER
10
0
20
0
30
0
11
6365.53
21
2636.6888
31
0
0
LINE
8
S-RAFTER
10
0
20
0
30
0
11
4702.2601
21
4702.2601
31
0
0
LINE
8
S-RAFTER
10
0
20
0
30
0
11
2636.6888
21
6365.53
31
0
0
LINE
8
S-RAFTER
10
0
20
0
30
0
11
0
21
6650
31
0
0
LINE
8
S-RAFTER
10
0
20
0
30
0
11
-2636.6888
21
6365.53
31
0
0
LINE
8
S-RAFTER
10
0
20
0
30
0
11
-4702.2601
21
4702.2601
31
0
0
LINE
8
S-RAFTER
10
0
20
0
30
0
11
-6365.53
21
2636.6888
31
0
0
LINE
8
S-RAFTER
10
0
20
0
30
0
11
-6650
21
0
31
0
0
LINE
8
S-RAFTER
10
0
20
0
30
0
11
-6365.53
21
-2636.6888
31
0
0
LINE
8
S-RAFTER
10
0
20
0
30
0
11
-4702.2601
21
-4702.2601
31
0
0
LINE
8
S-RAFTER
10
0
20
0
30
0
11
-2636.6888
21
-6365.53
31
0
0
LINE
8
S-RAFTER
10
0
20
0
30
0
11
0
21
-6650
31
0
0
LINE
8
S-RAFTER
10
0
20
0
30
0
11
2636.6888
21
-6365.53
31
0
0
LINE
8
S-RAFTER
10
0
20
0
30
0
11
4702.2601
21
-4702.2601
31
0
0
LINE
8
S-RAFTER
10
0
20
0
30
0
11
6365.53
21
-2636.6888
31
0
0
LINE
8
S-RAFTER
10
0
20
0
30
0
11
6650
21
0
31
0
0
LINE
8
S-RIDGE
10
0
20
0
30
0
11
6384.0076
21
2644.3425
31
0
0
LINE
8
S-RIDGE
10
0
20
0
30
0
11
2644.3425
21
6384.0076
31
0
0
LINE
8
S-RIDGE
10
0
20
0
30
0
11
-2644.3425
21
6384.0076
31
0
0
LINE
8
S-RIDGE
10
0
20
0
30
0
11
-6384.0076
21
2644.3425
31
0
0
LINE
8
S-RIDGE
10
0
20
0
30
0
11
-6384.0076
21
-2644.3425
31
0
0
LINE
8
S-RIDGE
10
0
20
0
30
0
11
-2644.3425
21
-6384.0076
31
0
0
LINE
8
S-RIDGE
10
0
20
0
30
0
11
2644.3425
21
-6384.0076
31
0
0
LINE
8
S-RIDGE
10
0
20
0
30
0
11
6384.0076
21
-2644.3425
31
0
0
LINE
8
A-CENTER
10
-8200
20
0
30
0
11
8200
21
0
31
0
0
LINE
8
A-CENTER
10
-5798.2756
20
-5798.2756
30
0
11
5798.2756
21
5798.2756
31
0
0
LINE
8
A-CENTER
10
0
20
-8200
30
0
11
0
21
8200
31
0
0
LINE
8
A-CENTER
10
5798.2756
20
-5798.2756
30
0
11
-5798.2756
21
5798.2756
31
0
0
CIRCLE
8
A-CENTER
10
0
20
0
30
0
40
120
0
TEXT
8
A-CENTER
10
140
20
140
30
0
40
180
1
CENTER
50
0
0
LINE
8
A-DIMS
10
-6328.5748
20
6328.5748
30
0
11
-6328.5748
21
8050
31
0
0
LINE
8
A-DIMS
10
6328.5748
20
6328.5748
30
0
11
6328.5748
21
8050
31
0
0
LINE
8
A-DIMS
10
-6328.5748
20
7900
30
0
11
6328.5748
21
7900
31
0
0
LINE
8
A-DIMS
10
-6328.5748
20
7900
30
0
11
-6438.3374
21
7969.6575
31
0
0
LINE
8
A-DIMS
10
-6328.5748
20
7900
30
0
11
-6438.3374
21
7830.3425
31
0
0
LINE
8
A-DIMS
10
6328.5748
20
7900
30
0
11
6438.3374
21
7830.3425
31
0
0
LINE
8
A-DIMS
10
6328.5748
20
7900
30
0
11
6438.3374
21
7969.6575
31
0
0
TEXT
8
A-DIMS
10
0
20
8080
30
0
40
220
1
12657 ROOF OVERALL
50
0
72
1
11
0
21
8080
31
0
0
LINE
8
A-DIMS
10
-5912.829
20
-5912.829
30
0
11
-5912.829
21
-7750
31
0
0
LINE
8
A-DIMS
10
5912.829
20
-5912.829
30
0
11
5912.829
21
-7750
31
0
0
LINE
8
A-DIMS
10
-5912.829
20
-7900
30
0
11
5912.829
21
-7900
31
0
0
LINE
8
A-DIMS
10
-5912.829
20
-7900
30
0
11
-6022.5916
21
-7830.3425
31
0
0
LINE
8
A-DIMS
10
-5912.829
20
-7900
30
0
11
-6022.5916
21
-7969.6575
31
0
0
LINE
8
A-DIMS
10
5912.829
20
-7900
30
0
11
6022.5916
21
-7969.6575
31
0
0
LINE
8
A-DIMS
10
5912.829
20
-7900
30
0
11
6022.5916
21
-7830.3425
31
0
0
TEXT
8
A-DIMS
10
0
20
-7720
30
0
40
220
1
11826 FOUNDATION
50
0
72
1
11
0
21
-7720
31
0
0
LINE
8
A-DIMS
10
0
20
0
30
0
11
4388.4278
21
1817.7463
31
0
0
LINE
8
A-DIMS
10
4388.4278
20
1817.7463
30
0
11
4516.492
21
1795.3955
31
0
0
LINE
8
A-DIMS
10
4388.4278
20
1817.7463
30
0
11
4463.1785
21
1924.1058
31
0
0
TEXT
8
A-DIMS
10
1950
20
1060
30
0
40
220
1
R4750 COLUMN GRID
50
0
0
TEXT
8
A-CENTER
10
-8200
20
6900
30
0
40
190
1
A
50
0
0
TEXT
8
A-CENTER
10
8030
20
-7050
30
0
40
190
1
A
50
0
0
TEXT
8
A-TITLE
10
-8400
20
-8600
30
0
40
360
1
A-101  OCTAGONAL PAVILION PLAN
50
0
0
TEXT
8
A-ANNO
10
-8400
20
-9020
30
0
40
200
1
COLUMN / BEAM / RAFTER SET-OUT
50
0
0
LINE
8
A-TITLE
10
-8400
20
-9200
30
0
11
-3200
21
-9200
31
0
0
TEXT
8
A-ANNO
10
1600
20
-8550
30
0
40
170
1
UNITS: MILLIMETRES | MODEL SPACE 1:1
50
0
0
TEXT
8
A-ANNO
10
1600
20
-8820
30
0
40
170
1
RECOMMENDED PLOT: A3 @ 1:50
50
0
0
TEXT
8
A-ANNO
10
1600
20
-9090
30
0
40
170
1
PROCEDURAL CONCEPT MODEL - NOT FOR CONSTRUCTION
50
0
0
TEXT
8
A-ANNO
10
1600
20
-9360
30
0
40
170
1
VERIFY LOCAL CODES, MATERIAL GRADES AND CONNECTION DESIGN
50
0
0
ENDSEC
0
EOF
