0
SECTION
2
HEADER
9
$ACADVER
1
AC1009
9
$DWGCODEPAGE
3
ANSI_1252
9
$INSUNITS
70
4
9
$EXTMIN
10
-9000
20
-1800
30
0
9
$EXTMAX
10
9500
20
13200
30
0
0
ENDSEC
0
SECTION
2
TABLES
0
TABLE
2
LTYPE
70
2
0
LTYPE
2
CONTINUOUS
70
0
3
Solid line
72
65
73
0
40
0.0
0
LTYPE
2
DASHED
70
0
3
Dashed __ __
72
65
73
2
40
12.0
49
8.0
74
0
49
-4.0
74
0
0
ENDTAB
0
TABLE
2
LAYER
70
15
0
LAYER
2
A-TITLE
70
0
62
7
6
CONTINUOUS
0
LAYER
2
A-ANNO
70
0
62
7
6
CONTINUOUS
0
LAYER
2
A-DIMS
70
0
62
3
6
CONTINUOUS
0
LAYER
2
A-CENTER
70
0
62
4
6
CONTINUOUS
0
LAYER
2
A-HIDDEN
70
0
62
8
6
DASHED
0
LAYER
2
A-RAILING
70
0
62
30
6
CONTINUOUS
0
LAYER
2
S-FOUNDATION
70
0
62
8
6
CONTINUOUS
0
LAYER
2
S-COLUMN-BASE
70
0
62
9
6
CONTINUOUS
0
LAYER
2
S-COLUMN
70
0
62
1
6
CONTINUOUS
0
LAYER
2
S-BEAM
70
0
62
30
6
CONTINUOUS
0
LAYER
2
S-DOUGONG
70
0
62
3
6
CONTINUOUS
0
LAYER
2
S-PURLIN
70
0
62
32
6
CONTINUOUS
0
LAYER
2
S-RAFTER
70
0
62
33
6
CONTINUOUS
0
LAYER
2
S-ROOF
70
0
62
5
6
CONTINUOUS
0
LAYER
2
S-RIDGE
70
0
62
2
6
CONTINUOUS
0
ENDTAB
0
ENDSEC
0
SECTION
2
ENTITIES
0
LINE
8
S-FOUNDATION
10
-6580
20
-250
30
0
11
6580
21
-250
31
0
0
LINE
8
S-FOUNDATION
10
6580
20
-250
30
0
11
6580
21
350
31
0
0
LINE
8
S-FOUNDATION
10
6580
20
350
30
0
11
-6580
21
350
31
0
0
LINE
8
S-FOUNDATION
10
-6580
20
350
30
0
11
-6580
21
-250
31
0
0
LINE
8
S-FOUNDATION
10
-5950
20
330
30
0
11
5950
21
330
31
0
0
LINE
8
S-FOUNDATION
10
5950
20
330
30
0
11
5950
21
710
31
0
0
LINE
8
S-FOUNDATION
10
5950
20
710
30
0
11
-5950
21
710
31
0
0
LINE
8
S-FOUNDATION
10
-5950
20
710
30
0
11
-5950
21
330
31
0
0
LINE
8
S-FOUNDATION
10
-5620
20
700
30
0
11
5620
21
700
31
0
0
LINE
8
S-FOUNDATION
10
5620
20
700
30
0
11
5620
21
980
31
0
0
LINE
8
S-FOUNDATION
10
5620
20
980
30
0
11
-5620
21
980
31
0
0
LINE
8
S-FOUNDATION
10
-5620
20
980
30
0
11
-5620
21
700
31
0
0
LINE
8
S-COLUMN
10
-5130
20
1360
30
0
11
-5050
21
7080
31
0
0
LINE
8
S-COLUMN
10
-4370
20
1360
30
0
11
-4450
21
7080
31
0
0
LINE
8
S-COLUMN
10
-5130
20
1360
30
0
11
-4370
21
1360
31
0
0
LINE
8
S-COLUMN
10
-5050
20
7080
30
0
11
-4450
21
7080
31
0
0
LINE
8
S-COLUMN-BASE
10
-5420
20
990
30
0
11
-4080
21
990
31
0
0
LINE
8
S-COLUMN-BASE
10
-4080
20
990
30
0
11
-4080
21
1330
31
0
0
LINE
8
S-COLUMN-BASE
10
-4080
20
1330
30
0
11
-5420
21
1330
31
0
0
LINE
8
S-COLUMN-BASE
10
-5420
20
1330
30
0
11
-5420
21
990
31
0
0
LINE
8
S-COLUMN-BASE
10
-5290
20
1330
30
0
11
-4210
21
1330
31
0
0
LINE
8
S-COLUMN-BASE
10
-4210
20
1330
30
0
11
-4210
21
1470
31
0
0
LINE
8
S-COLUMN-BASE
10
-4210
20
1470
30
0
11
-5290
21
1470
31
0
0
LINE
8
S-COLUMN-BASE
10
-5290
20
1470
30
0
11
-5290
21
1330
31
0
0
LINE
8
S-COLUMN
10
4370
20
1360
30
0
11
4450
21
7080
31
0
0
LINE
8
S-COLUMN
10
5130
20
1360
30
0
11
5050
21
7080
31
0
0
LINE
8
S-COLUMN
10
4370
20
1360
30
0
11
5130
21
1360
31
0
0
LINE
8
S-COLUMN
10
4450
20
7080
30
0
11
5050
21
7080
31
0
0
LINE
8
S-COLUMN-BASE
10
4080
20
990
30
0
11
5420
21
990
31
0
0
LINE
8
S-COLUMN-BASE
10
5420
20
990
30
0
11
5420
21
1330
31
0
0
LINE
8
S-COLUMN-BASE
10
5420
20
1330
30
0
11
4080
21
1330
31
0
0
LINE
8
S-COLUMN-BASE
10
4080
20
1330
30
0
11
4080
21
990
31
0
0
LINE
8
S-COLUMN-BASE
10
4210
20
1330
30
0
11
5290
21
1330
31
0
0
LINE
8
S-COLUMN-BASE
10
5290
20
1330
30
0
11
5290
21
1470
31
0
0
LINE
8
S-COLUMN-BASE
10
5290
20
1470
30
0
11
4210
21
1470
31
0
0
LINE
8
S-COLUMN-BASE
10
4210
20
1470
30
0
11
4210
21
1330
31
0
0
LINE
8
S-DOUGONG
10
-5110
20
7335
30
0
11
-4390
21
7335
31
0
0
LINE
8
S-DOUGONG
10
-4390
20
7335
30
0
11
-4390
21
7685
31
0
0
LINE
8
S-DOUGONG
10
-4390
20
7685
30
0
11
-5110
21
7685
31
0
0
LINE
8
S-DOUGONG
10
-5110
20
7685
30
0
11
-5110
21
7335
31
0
0
LINE
8
S-DOUGONG
10
-5490
20
7690
30
0
11
-4010
21
7690
31
0
0
LINE
8
S-DOUGONG
10
-4010
20
7690
30
0
11
-4010
21
7910
31
0
0
LINE
8
S-DOUGONG
10
-4010
20
7910
30
0
11
-5490
21
7910
31
0
0
LINE
8
S-DOUGONG
10
-5490
20
7910
30
0
11
-5490
21
7690
31
0
0
LINE
8
S-DOUGONG
10
-5270
20
7980
30
0
11
-4230
21
7980
31
0
0
LINE
8
S-DOUGONG
10
-4230
20
7980
30
0
11
-4230
21
8200
31
0
0
LINE
8
S-DOUGONG
10
-4230
20
8200
30
0
11
-5270
21
8200
31
0
0
LINE
8
S-DOUGONG
10
-5270
20
8200
30
0
11
-5270
21
7980
31
0
0
LINE
8
S-DOUGONG
10
-5310
20
8250
30
0
11
-4190
21
8250
31
0
0
LINE
8
S-DOUGONG
10
-4190
20
8250
30
0
11
-4190
21
8430
31
0
0
LINE
8
S-DOUGONG
10
-4190
20
8430
30
0
11
-5310
21
8430
31
0
0
LINE
8
S-DOUGONG
10
-5310
20
8430
30
0
11
-5310
21
8250
31
0
0
LINE
8
S-DOUGONG
10
4390
20
7335
30
0
11
5110
21
7335
31
0
0
LINE
8
S-DOUGONG
10
5110
20
7335
30
0
11
5110
21
7685
31
0
0
LINE
8
S-DOUGONG
10
5110
20
7685
30
0
11
4390
21
7685
31
0
0
LINE
8
S-DOUGONG
10
4390
20
7685
30
0
11
4390
21
7335
31
0
0
LINE
8
S-DOUGONG
10
4010
20
7690
30
0
11
5490
21
7690
31
0
0
LINE
8
S-DOUGONG
10
5490
20
7690
30
0
11
5490
21
7910
31
0
0
LINE
8
S-DOUGONG
10
5490
20
7910
30
0
11
4010
21
7910
31
0
0
LINE
8
S-DOUGONG
10
4010
20
7910
30
0
11
4010
21
7690
31
0
0
LINE
8
S-DOUGONG
10
4230
20
7980
30
0
11
5270
21
7980
31
0
0
LINE
8
S-DOUGONG
10
5270
20
7980
30
0
11
5270
21
8200
31
0
0
LINE
8
S-DOUGONG
10
5270
20
8200
30
0
11
4230
21
8200
31
0
0
LINE
8
S-DOUGONG
10
4230
20
8200
30
0
11
4230
21
7980
31
0
0
LINE
8
S-DOUGONG
10
4190
20
8250
30
0
11
5310
21
8250
31
0
0
LINE
8
S-DOUGONG
10
5310
20
8250
30
0
11
5310
21
8430
31
0
0
LINE
8
S-DOUGONG
10
5310
20
8430
30
0
11
4190
21
8430
31
0
0
LINE
8
S-DOUGONG
10
4190
20
8430
30
0
11
4190
21
8250
31
0
0
LINE
8
S-BEAM
10
-4930
20
6970
30
0
11
4930
21
6970
31
0
0
LINE
8
S-BEAM
10
4930
20
6970
30
0
11
4930
21
7390
31
0
0
LINE
8
S-BEAM
10
4930
20
7390
30
0
11
-4930
21
7390
31
0
0
LINE
8
S-BEAM
10
-4930
20
7390
30
0
11
-4930
21
6970
31
0
0
LINE
8
S-BEAM
10
-4930
20
7400
30
0
11
4930
21
7400
31
0
0
LINE
8
S-BEAM
10
4930
20
7400
30
0
11
4930
21
7720
31
0
0
LINE
8
S-BEAM
10
4930
20
7720
30
0
11
-4930
21
7720
31
0
0
LINE
8
S-BEAM
10
-4930
20
7720
30
0
11
-4930
21
7400
31
0
0
LINE
8
S-PURLIN
10
-4750
20
8380
30
0
11
4750
21
8380
31
0
0
LINE
8
S-PURLIN
10
4750
20
8380
30
0
11
4750
21
8620
31
0
0
LINE
8
S-PURLIN
10
4750
20
8620
30
0
11
-4750
21
8620
31
0
0
LINE
8
S-PURLIN
10
-4750
20
8620
30
0
11
-4750
21
8380
31
0
0
LINE
8
S-COLUMN
10
-360
20
7685
30
0
11
360
21
7685
31
0
0
LINE
8
S-COLUMN
10
360
20
7685
30
0
11
360
21
10235
31
0
0
LINE
8
S-COLUMN
10
360
20
10235
30
0
11
-360
21
10235
31
0
0
LINE
8
S-COLUMN
10
-360
20
10235
30
0
11
-360
21
7685
31
0
0
LINE
8
S-DOUGONG
10
-410
20
7685
30
0
11
410
21
7685
31
0
0
LINE
8
S-DOUGONG
10
410
20
7685
30
0
11
410
21
7985
31
0
0
LINE
8
S-DOUGONG
10
410
20
7985
30
0
11
-410
21
7985
31
0
0
LINE
8
S-DOUGONG
10
-410
20
7985
30
0
11
-410
21
7685
31
0
0
LINE
8
S-DOUGONG
10
-360
20
10235
30
0
11
360
21
10235
31
0
0
LINE
8
S-DOUGONG
10
360
20
10235
30
0
11
360
21
10515
31
0
0
LINE
8
S-DOUGONG
10
360
20
10515
30
0
11
-360
21
10515
31
0
0
LINE
8
S-DOUGONG
10
-360
20
10515
30
0
11
-360
21
10235
31
0
0
LINE
8
S-RAFTER
10
-6890
20
7620
30
0
11
-4750
21
8500
31
0
0
LINE
8
S-RAFTER
10
-4750
20
8500
30
0
11
0
21
10650
31
0
0
LINE
8
S-RAFTER
10
0
20
10650
30
0
11
4750
21
8500
31
0
0
LINE
8
S-RAFTER
10
4750
20
8500
30
0
11
6890
21
7620
31
0
0
LINE
8
S-ROOF
10
-6890
20
7750
30
0
11
-4750
21
8630
31
0
0
LINE
8
S-ROOF
10
-4750
20
8630
30
0
11
0
21
10780
31
0
0
LINE
8
S-ROOF
10
0
20
10780
30
0
11
4750
21
8630
31
0
0
LINE
8
S-ROOF
10
4750
20
8630
30
0
11
6890
21
7750
31
0
0
LINE
8
S-ROOF
10
-6890
20
7620
30
0
11
-6890
21
7420
31
0
0
LINE
8
S-ROOF
10
6890
20
7620
30
0
11
6890
21
7420
31
0
0
LINE
8
S-RIDGE
10
-620
20
10650
30
0
11
620
21
10650
31
0
0
LINE
8
S-RIDGE
10
620
20
10650
30
0
11
620
21
11030
31
0
0
LINE
8
S-RIDGE
10
620
20
11030
30
0
11
-620
21
11030
31
0
0
LINE
8
S-RIDGE
10
-620
20
11030
30
0
11
-620
21
10650
31
0
0
LINE
8
S-RIDGE
10
-260
20
11030
30
0
11
260
21
11030
31
0
0
LINE
8
S-RIDGE
10
260
20
11030
30
0
11
260
21
12080
31
0
0
LINE
8
S-RIDGE
10
260
20
12080
30
0
11
-260
21
12080
31
0
0
LINE
8
S-RIDGE
10
-260
20
12080
30
0
11
-260
21
11030
31
0
0
CIRCLE
8
S-RIDGE
10
0
20
12410
30
0
40
420
0
LINE
8
A-CENTER
10
-8200
20
0
30
0
11
8500
21
0
31
0
0
LINE
8
A-CENTER
10
0
20
-600
30
0
11
0
21
13000
31
0
0
TEXT
8
A-ANNO
10
-7150
20
6950
30
0
40
190
1
ROOF RAFTER BEARS ON EAVE PURLIN
50
0
0
LINE
8
A-ANNO
10
-5750
20
7100
30
0
11
-4860
21
8390
31
0
0
LINE
8
A-ANNO
10
-4860
20
8390
30
0
11
-4750.4339
21
8438.9414
31
0
0
LINE
8
A-ANNO
10
-4860
20
8390
30
0
11
-4857.6325
21
8509.9766
31
0
0
TEXT
8
A-ANNO
10
700
20
9250
30
0
40
190
1
CENTRAL KINGPOST
50
0
0
LINE
8
A-ANNO
10
650
20
9200
30
0
11
360
21
9200
31
0
0
TEXT
8
A-ANNO
10
-1600
20
7480
30
0
40
190
1
DIAMETRAL SUPPORT BEAM
50
0
0
TEXT
8
A-ANNO
10
-7800
20
2500
30
0
40
190
1
OPEN PERIMETER + RAILING
50
0
0
LINE
8
A-DIMS
10
-4750
20
990
30
0
11
-4750
21
-700
31
0
0
LINE
8
A-DIMS
10
4750
20
990
30
0
11
4750
21
-700
31
0
0
LINE
8
A-DIMS
10
-4750
20
-850
30
0
11
4750
21
-850
31
0
0
LINE
8
A-DIMS
10
-4750
20
-850
30
0
11
-4859.7626
21
-780.3425
31
0
0
LINE
8
A-DIMS
10
-4750
20
-850
30
0
11
-4859.7626
21
-919.6575
31
0
0
LINE
8
A-DIMS
10
4750
20
-850
30
0
11
4859.7626
21
-919.6575
31
0
0
LINE
8
A-DIMS
10
4750
20
-850
30
0
11
4859.7626
21
-780.3425
31
0
0
TEXT
8
A-DIMS
10
0
20
-670
30
0
40
220
1
9500 STRUCTURAL DIAMETER
50
0
72
1
11
0
21
-670
31
0
0
LINE
8
A-DIMS
10
6890
20
0
30
0
11
8150
21
0
31
0
0
LINE
8
A-DIMS
10
6890
20
12410
30
0
11
8150
21
12410
31
0
0
LINE
8
A-DIMS
10
8300
20
0
30
0
11
8300
21
12410
31
0
0
LINE
8
A-DIMS
10
8300
20
0
30
0
11
8230.3425
21
-109.7626
31
0
0
LINE
8
A-DIMS
10
8300
20
0
30
0
11
8369.6575
21
-109.7626
31
0
0
LINE
8
A-DIMS
10
8300
20
12410
30
0
11
8369.6575
21
12519.7626
31
0
0
LINE
8
A-DIMS
10
8300
20
12410
30
0
11
8230.3425
21
12519.7626
31
0
0
TEXT
8
A-DIMS
10
8090
20
6205
30
0
40
220
1
12410 FINIAL TOP
50
90
72
1
11
8090
21
6205
31
0
0
LINE
8
A-DIMS
10
4750
20
0
30
0
11
7450
21
0
31
0
0
LINE
8
A-DIMS
10
4750
20
8500
30
0
11
7450
21
8500
31
0
0
LINE
8
A-DIMS
10
7600
20
0
30
0
11
7600
21
8500
31
0
0
LINE
8
A-DIMS
10
7600
20
0
30
0
11
7530.3425
21
-109.7626
31
0
0
LINE
8
A-DIMS
10
7600
20
0
30
0
11
7669.6575
21
-109.7626
31
0
0
LINE
8
A-DIMS
10
7600
20
8500
30
0
11
7669.6575
21
8609.7626
31
0
0
LINE
8
A-DIMS
10
7600
20
8500
30
0
11
7530.3425
21
8609.7626
31
0
0
TEXT
8
A-DIMS
10
7390
20
4250
30
0
40
220
1
8500 PURLIN
50
90
72
1
11
7390
21
4250
31
0
0
TEXT
8
A-TITLE
10
-8400
20
11800
30
0
40
360
1
A-301  SECTION A-A
50
0
0
TEXT
8
A-ANNO
10
-8400
20
11380
30
0
40
200
1
FOUNDATION -> COLUMN -> BEAM -> PURLIN -> RAFTER
50
0
0
LINE
8
A-TITLE
10
-8400
20
11200
30
0
11
-3200
21
11200
31
0
0
TEXT
8
A-ANNO
10
-8400
20
10750
30
0
40
170
1
UNITS: MILLIMETRES | MODEL SPACE 1:1
50
0
0
TEXT
8
A-ANNO
10
-8400
20
10480
30
0
40
170
1
RECOMMENDED PLOT: A3 @ 1:50
50
0
0
TEXT
8
A-ANNO
10
-8400
20
10210
30
0
40
170
1
PROCEDURAL CONCEPT MODEL - NOT FOR CONSTRUCTION
50
0
0
TEXT
8
A-ANNO
10
-8400
20
9940
30
0
40
170
1
VERIFY LOCAL CODES, MATERIAL GRADES AND CONNECTION DESIGN
50
0
0
ENDSEC
0
EOF
