0
SECTION
2
HEADER
9
$ACADVER
1
AC1009
9
$DWGCODEPAGE
3
ANSI_1252
9
$INSUNITS
70
4
9
$EXTMIN
10
-9000
20
-1800
30
0
9
$EXTMAX
10
9300
20
13200
30
0
0
ENDSEC
0
SECTION
2
TABLES
0
TABLE
2
LTYPE
70
2
0
LTYPE
2
CONTINUOUS
70
0
3
Solid line
72
65
73
0
40
0.0
0
LTYPE
2
DASHED
70
0
3
Dashed __ __
72
65
73
2
40
12.0
49
8.0
74
0
49
-4.0
74
0
0
ENDTAB
0
TABLE
2
LAYER
70
15
0
LAYER
2
A-TITLE
70
0
62
7
6
CONTINUOUS
0
LAYER
2
A-ANNO
70
0
62
7
6
CONTINUOUS
0
LAYER
2
A-DIMS
70
0
62
3
6
CONTINUOUS
0
LAYER
2
A-CENTER
70
0
62
4
6
CONTINUOUS
0
LAYER
2
A-HIDDEN
70
0
62
8
6
DASHED
0
LAYER
2
A-RAILING
70
0
62
30
6
CONTINUOUS
0
LAYER
2
S-FOUNDATION
70
0
62
8
6
CONTINUOUS
0
LAYER
2
S-COLUMN-BASE
70
0
62
9
6
CONTINUOUS
0
LAYER
2
S-COLUMN
70
0
62
1
6
CONTINUOUS
0
LAYER
2
S-BEAM
70
0
62
30
6
CONTINUOUS
0
LAYER
2
S-DOUGONG
70
0
62
3
6
CONTINUOUS
0
LAYER
2
S-PURLIN
70
0
62
32
6
CONTINUOUS
0
LAYER
2
S-RAFTER
70
0
62
33
6
CONTINUOUS
0
LAYER
2
S-ROOF
70
0
62
5
6
CONTINUOUS
0
LAYER
2
S-RIDGE
70
0
62
2
6
CONTINUOUS
0
ENDTAB
0
ENDSEC
0
SECTION
2
ENTITIES
0
LINE
8
S-FOUNDATION
10
-6580
20
-250
30
0
11
6580
21
-250
31
0
0
LINE
8
S-FOUNDATION
10
6580
20
-250
30
0
11
6580
21
350
31
0
0
LINE
8
S-FOUNDATION
10
6580
20
350
30
0
11
-6580
21
350
31
0
0
LINE
8
S-FOUNDATION
10
-6580
20
350
30
0
11
-6580
21
-250
31
0
0
LINE
8
S-FOUNDATION
10
-5950
20
330
30
0
11
5950
21
330
31
0
0
LINE
8
S-FOUNDATION
10
5950
20
330
30
0
11
5950
21
710
31
0
0
LINE
8
S-FOUNDATION
10
5950
20
710
30
0
11
-5950
21
710
31
0
0
LINE
8
S-FOUNDATION
10
-5950
20
710
30
0
11
-5950
21
330
31
0
0
LINE
8
S-FOUNDATION
10
-5620
20
700
30
0
11
5620
21
700
31
0
0
LINE
8
S-FOUNDATION
10
5620
20
700
30
0
11
5620
21
980
31
0
0
LINE
8
S-FOUNDATION
10
5620
20
980
30
0
11
-5620
21
980
31
0
0
LINE
8
S-FOUNDATION
10
-5620
20
980
30
0
11
-5620
21
700
31
0
0
LINE
8
S-COLUMN
10
-4768.9
20
1360
30
0
11
-4688.9
21
7080
31
0
0
LINE
8
S-COLUMN
10
-4008.9
20
1360
30
0
11
-4088.9
21
7080
31
0
0
LINE
8
S-COLUMN
10
-4768.9
20
1360
30
0
11
-4008.9
21
1360
31
0
0
LINE
8
S-COLUMN
10
-4688.9
20
7080
30
0
11
-4088.9
21
7080
31
0
0
LINE
8
S-COLUMN-BASE
10
-5058.9
20
990
30
0
11
-3718.9
21
990
31
0
0
LINE
8
S-COLUMN-BASE
10
-3718.9
20
990
30
0
11
-3718.9
21
1330
31
0
0
LINE
8
S-COLUMN-BASE
10
-3718.9
20
1330
30
0
11
-5058.9
21
1330
31
0
0
LINE
8
S-COLUMN-BASE
10
-5058.9
20
1330
30
0
11
-5058.9
21
990
31
0
0
LINE
8
S-COLUMN-BASE
10
-4928.9
20
1330
30
0
11
-3848.9
21
1330
31
0
0
LINE
8
S-COLUMN-BASE
10
-3848.9
20
1330
30
0
11
-3848.9
21
1470
31
0
0
LINE
8
S-COLUMN-BASE
10
-3848.9
20
1470
30
0
11
-4928.9
21
1470
31
0
0
LINE
8
S-COLUMN-BASE
10
-4928.9
20
1470
30
0
11
-4928.9
21
1330
31
0
0
LINE
8
S-COLUMN
10
-2197.8
20
1360
30
0
11
-2117.8
21
7080
31
0
0
LINE
8
S-COLUMN
10
-1437.8
20
1360
30
0
11
-1517.8
21
7080
31
0
0
LINE
8
S-COLUMN
10
-2197.8
20
1360
30
0
11
-1437.8
21
1360
31
0
0
LINE
8
S-COLUMN
10
-2117.8
20
7080
30
0
11
-1517.8
21
7080
31
0
0
LINE
8
S-COLUMN-BASE
10
-2487.8
20
990
30
0
11
-1147.8
21
990
31
0
0
LINE
8
S-COLUMN-BASE
10
-1147.8
20
990
30
0
11
-1147.8
21
1330
31
0
0
LINE
8
S-COLUMN-BASE
10
-1147.8
20
1330
30
0
11
-2487.8
21
1330
31
0
0
LINE
8
S-COLUMN-BASE
10
-2487.8
20
1330
30
0
11
-2487.8
21
990
31
0
0
LINE
8
S-COLUMN-BASE
10
-2357.8
20
1330
30
0
11
-1277.8
21
1330
31
0
0
LINE
8
S-COLUMN-BASE
10
-1277.8
20
1330
30
0
11
-1277.8
21
1470
31
0
0
LINE
8
S-COLUMN-BASE
10
-1277.8
20
1470
30
0
11
-2357.8
21
1470
31
0
0
LINE
8
S-COLUMN-BASE
10
-2357.8
20
1470
30
0
11
-2357.8
21
1330
31
0
0
LINE
8
S-COLUMN
10
1437.8
20
1360
30
0
11
1517.8
21
7080
31
0
0
LINE
8
S-COLUMN
10
2197.8
20
1360
30
0
11
2117.8
21
7080
31
0
0
LINE
8
S-COLUMN
10
1437.8
20
1360
30
0
11
2197.8
21
1360
31
0
0
LINE
8
S-COLUMN
10
1517.8
20
7080
30
0
11
2117.8
21
7080
31
0
0
LINE
8
S-COLUMN-BASE
10
1147.8
20
990
30
0
11
2487.8
21
990
31
0
0
LINE
8
S-COLUMN-BASE
10
2487.8
20
990
30
0
11
2487.8
21
1330
31
0
0
LINE
8
S-COLUMN-BASE
10
2487.8
20
1330
30
0
11
1147.8
21
1330
31
0
0
LINE
8
S-COLUMN-BASE
10
1147.8
20
1330
30
0
11
1147.8
21
990
31
0
0
LINE
8
S-COLUMN-BASE
10
1277.8
20
1330
30
0
11
2357.8
21
1330
31
0
0
LINE
8
S-COLUMN-BASE
10
2357.8
20
1330
30
0
11
2357.8
21
1470
31
0
0
LINE
8
S-COLUMN-BASE
10
2357.8
20
1470
30
0
11
1277.8
21
1470
31
0
0
LINE
8
S-COLUMN-BASE
10
1277.8
20
1470
30
0
11
1277.8
21
1330
31
0
0
LINE
8
S-COLUMN
10
4008.9
20
1360
30
0
11
4088.9
21
7080
31
0
0
LINE
8
S-COLUMN
10
4768.9
20
1360
30
0
11
4688.9
21
7080
31
0
0
LINE
8
S-COLUMN
10
4008.9
20
1360
30
0
11
4768.9
21
1360
31
0
0
LINE
8
S-COLUMN
10
4088.9
20
7080
30
0
11
4688.9
21
7080
31
0
0
LINE
8
S-COLUMN-BASE
10
3718.9
20
990
30
0
11
5058.9
21
990
31
0
0
LINE
8
S-COLUMN-BASE
10
5058.9
20
990
30
0
11
5058.9
21
1330
31
0
0
LINE
8
S-COLUMN-BASE
10
5058.9
20
1330
30
0
11
3718.9
21
1330
31
0
0
LINE
8
S-COLUMN-BASE
10
3718.9
20
1330
30
0
11
3718.9
21
990
31
0
0
LINE
8
S-COLUMN-BASE
10
3848.9
20
1330
30
0
11
4928.9
21
1330
31
0
0
LINE
8
S-COLUMN-BASE
10
4928.9
20
1330
30
0
11
4928.9
21
1470
31
0
0
LINE
8
S-COLUMN-BASE
10
4928.9
20
1470
30
0
11
3848.9
21
1470
31
0
0
LINE
8
S-COLUMN-BASE
10
3848.9
20
1470
30
0
11
3848.9
21
1330
31
0
0
LINE
8
S-DOUGONG
10
-4748.9
20
7335
30
0
11
-4028.9
21
7335
31
0
0
LINE
8
S-DOUGONG
10
-4028.9
20
7335
30
0
11
-4028.9
21
7685
31
0
0
LINE
8
S-DOUGONG
10
-4028.9
20
7685
30
0
11
-4748.9
21
7685
31
0
0
LINE
8
S-DOUGONG
10
-4748.9
20
7685
30
0
11
-4748.9
21
7335
31
0
0
LINE
8
S-DOUGONG
10
-5128.9
20
7690
30
0
11
-3648.9
21
7690
31
0
0
LINE
8
S-DOUGONG
10
-3648.9
20
7690
30
0
11
-3648.9
21
7910
31
0
0
LINE
8
S-DOUGONG
10
-3648.9
20
7910
30
0
11
-5128.9
21
7910
31
0
0
LINE
8
S-DOUGONG
10
-5128.9
20
7910
30
0
11
-5128.9
21
7690
31
0
0
LINE
8
S-DOUGONG
10
-4908.9
20
7980
30
0
11
-3868.9
21
7980
31
0
0
LINE
8
S-DOUGONG
10
-3868.9
20
7980
30
0
11
-3868.9
21
8200
31
0
0
LINE
8
S-DOUGONG
10
-3868.9
20
8200
30
0
11
-4908.9
21
8200
31
0
0
LINE
8
S-DOUGONG
10
-4908.9
20
8200
30
0
11
-4908.9
21
7980
31
0
0
LINE
8
S-DOUGONG
10
-4948.9
20
8250
30
0
11
-3828.9
21
8250
31
0
0
LINE
8
S-DOUGONG
10
-3828.9
20
8250
30
0
11
-3828.9
21
8430
31
0
0
LINE
8
S-DOUGONG
10
-3828.9
20
8430
30
0
11
-4948.9
21
8430
31
0
0
LINE
8
S-DOUGONG
10
-4948.9
20
8430
30
0
11
-4948.9
21
8250
31
0
0
LINE
8
S-DOUGONG
10
-2177.8
20
7335
30
0
11
-1457.8
21
7335
31
0
0
LINE
8
S-DOUGONG
10
-1457.8
20
7335
30
0
11
-1457.8
21
7685
31
0
0
LINE
8
S-DOUGONG
10
-1457.8
20
7685
30
0
11
-2177.8
21
7685
31
0
0
LINE
8
S-DOUGONG
10
-2177.8
20
7685
30
0
11
-2177.8
21
7335
31
0
0
LINE
8
S-DOUGONG
10
-2557.8
20
7690
30
0
11
-1077.8
21
7690
31
0
0
LINE
8
S-DOUGONG
10
-1077.8
20
7690
30
0
11
-1077.8
21
7910
31
0
0
LINE
8
S-DOUGONG
10
-1077.8
20
7910
30
0
11
-2557.8
21
7910
31
0
0
LINE
8
S-DOUGONG
10
-2557.8
20
7910
30
0
11
-2557.8
21
7690
31
0
0
LINE
8
S-DOUGONG
10
-2337.8
20
7980
30
0
11
-1297.8
21
7980
31
0
0
LINE
8
S-DOUGONG
10
-1297.8
20
7980
30
0
11
-1297.8
21
8200
31
0
0
LINE
8
S-DOUGONG
10
-1297.8
20
8200
30
0
11
-2337.8
21
8200
31
0
0
LINE
8
S-DOUGONG
10
-2337.8
20
8200
30
0
11
-2337.8
21
7980
31
0
0
LINE
8
S-DOUGONG
10
-2377.8
20
8250
30
0
11
-1257.8
21
8250
31
0
0
LINE
8
S-DOUGONG
10
-1257.8
20
8250
30
0
11
-1257.8
21
8430
31
0
0
LINE
8
S-DOUGONG
10
-1257.8
20
8430
30
0
11
-2377.8
21
8430
31
0
0
LINE
8
S-DOUGONG
10
-2377.8
20
8430
30
0
11
-2377.8
21
8250
31
0
0
LINE
8
S-DOUGONG
10
1457.8
20
7335
30
0
11
2177.8
21
7335
31
0
0
LINE
8
S-DOUGONG
10
2177.8
20
7335
30
0
11
2177.8
21
7685
31
0
0
LINE
8
S-DOUGONG
10
2177.8
20
7685
30
0
11
1457.8
21
7685
31
0
0
LINE
8
S-DOUGONG
10
1457.8
20
7685
30
0
11
1457.8
21
7335
31
0
0
LINE
8
S-DOUGONG
10
1077.8
20
7690
30
0
11
2557.8
21
7690
31
0
0
LINE
8
S-DOUGONG
10
2557.8
20
7690
30
0
11
2557.8
21
7910
31
0
0
LINE
8
S-DOUGONG
10
2557.8
20
7910
30
0
11
1077.8
21
7910
31
0
0
LINE
8
S-DOUGONG
10
1077.8
20
7910
30
0
11
1077.8
21
7690
31
0
0
LINE
8
S-DOUGONG
10
1297.8
20
7980
30
0
11
2337.8
21
7980
31
0
0
LINE
8
S-DOUGONG
10
2337.8
20
7980
30
0
11
2337.8
21
8200
31
0
0
LINE
8
S-DOUGONG
10
2337.8
20
8200
30
0
11
1297.8
21
8200
31
0
0
LINE
8
S-DOUGONG
10
1297.8
20
8200
30
0
11
1297.8
21
7980
31
0
0
LINE
8
S-DOUGONG
10
1257.8
20
8250
30
0
11
2377.8
21
8250
31
0
0
LINE
8
S-DOUGONG
10
2377.8
20
8250
30
0
11
2377.8
21
8430
31
0
0
LINE
8
S-DOUGONG
10
2377.8
20
8430
30
0
11
1257.8
21
8430
31
0
0
LINE
8
S-DOUGONG
10
1257.8
20
8430
30
0
11
1257.8
21
8250
31
0
0
LINE
8
S-DOUGONG
10
4028.9
20
7335
30
0
11
4748.9
21
7335
31
0
0
LINE
8
S-DOUGONG
10
4748.9
20
7335
30
0
11
4748.9
21
7685
31
0
0
LINE
8
S-DOUGONG
10
4748.9
20
7685
30
0
11
4028.9
21
7685
31
0
0
LINE
8
S-DOUGONG
10
4028.9
20
7685
30
0
11
4028.9
21
7335
31
0
0
LINE
8
S-DOUGONG
10
3648.9
20
7690
30
0
11
5128.9
21
7690
31
0
0
LINE
8
S-DOUGONG
10
5128.9
20
7690
30
0
11
5128.9
21
7910
31
0
0
LINE
8
S-DOUGONG
10
5128.9
20
7910
30
0
11
3648.9
21
7910
31
0
0
LINE
8
S-DOUGONG
10
3648.9
20
7910
30
0
11
3648.9
21
7690
31
0
0
LINE
8
S-DOUGONG
10
3868.9
20
7980
30
0
11
4908.9
21
7980
31
0
0
LINE
8
S-DOUGONG
10
4908.9
20
7980
30
0
11
4908.9
21
8200
31
0
0
LINE
8
S-DOUGONG
10
4908.9
20
8200
30
0
11
3868.9
21
8200
31
0
0
LINE
8
S-DOUGONG
10
3868.9
20
8200
30
0
11
3868.9
21
7980
31
0
0
LINE
8
S-DOUGONG
10
3828.9
20
8250
30
0
11
4948.9
21
8250
31
0
0
LINE
8
S-DOUGONG
10
4948.9
20
8250
30
0
11
4948.9
21
8430
31
0
0
LINE
8
S-DOUGONG
10
4948.9
20
8430
30
0
11
3828.9
21
8430
31
0
0
LINE
8
S-DOUGONG
10
3828.9
20
8430
30
0
11
3828.9
21
8250
31
0
0
LINE
8
S-BEAM
10
-4630
20
6970
30
0
11
4630
21
6970
31
0
0
LINE
8
S-BEAM
10
4630
20
6970
30
0
11
4630
21
7390
31
0
0
LINE
8
S-BEAM
10
4630
20
7390
30
0
11
-4630
21
7390
31
0
0
LINE
8
S-BEAM
10
-4630
20
7390
30
0
11
-4630
21
6970
31
0
0
LINE
8
S-PURLIN
10
-4750
20
8380
30
0
11
4750
21
8380
31
0
0
LINE
8
S-PURLIN
10
4750
20
8380
30
0
11
4750
21
8620
31
0
0
LINE
8
S-PURLIN
10
4750
20
8620
30
0
11
-4750
21
8620
31
0
0
LINE
8
S-PURLIN
10
-4750
20
8620
30
0
11
-4750
21
8380
31
0
0
LINE
8
S-ROOF
10
-6850
20
7730
30
0
11
-4750
21
8500
31
0
0
LINE
8
S-ROOF
10
-4750
20
8500
30
0
11
0
21
10650
31
0
0
LINE
8
S-ROOF
10
0
20
10650
30
0
11
4750
21
8500
31
0
0
LINE
8
S-ROOF
10
4750
20
8500
30
0
11
6850
21
7730
31
0
0
LINE
8
S-RAFTER
10
-6850
20
7620
30
0
11
-4750
21
8440
31
0
0
LINE
8
S-RAFTER
10
-4750
20
8440
30
0
11
0
21
10470
31
0
0
LINE
8
S-RAFTER
10
0
20
10470
30
0
11
4750
21
8440
31
0
0
LINE
8
S-RAFTER
10
4750
20
8440
30
0
11
6850
21
7620
31
0
0
LINE
8
S-RIDGE
10
-6850
20
7730
30
0
11
-6850
21
7500
31
0
0
LINE
8
S-RIDGE
10
6850
20
7730
30
0
11
6850
21
7500
31
0
0
LINE
8
S-RIDGE
10
-620
20
10650
30
0
11
620
21
10650
31
0
0
LINE
8
S-RIDGE
10
620
20
10650
30
0
11
620
21
11030
31
0
0
LINE
8
S-RIDGE
10
620
20
11030
30
0
11
-620
21
11030
31
0
0
LINE
8
S-RIDGE
10
-620
20
11030
30
0
11
-620
21
10650
31
0
0
LINE
8
S-RIDGE
10
-260
20
11030
30
0
11
260
21
11030
31
0
0
LINE
8
S-RIDGE
10
260
20
11030
30
0
11
260
21
12080
31
0
0
LINE
8
S-RIDGE
10
260
20
12080
30
0
11
-260
21
12080
31
0
0
LINE
8
S-RIDGE
10
-260
20
12080
30
0
11
-260
21
11030
31
0
0
CIRCLE
8
S-RIDGE
10
0
20
12410
30
0
40
420
0
LINE
8
A-RAILING
10
-5168.9
20
1820
30
0
11
-3608.9
21
1820
31
0
0
LINE
8
A-RAILING
10
-5108.9
20
2640
30
0
11
-3668.9
21
2640
31
0
0
LINE
8
A-RAILING
10
-2597.8
20
1820
30
0
11
-1037.8
21
1820
31
0
0
LINE
8
A-RAILING
10
-2537.8
20
2640
30
0
11
-1097.8
21
2640
31
0
0
LINE
8
A-RAILING
10
1037.8
20
1820
30
0
11
2597.8
21
1820
31
0
0
LINE
8
A-RAILING
10
1097.8
20
2640
30
0
11
2537.8
21
2640
31
0
0
LINE
8
A-RAILING
10
3608.9
20
1820
30
0
11
5168.9
21
1820
31
0
0
LINE
8
A-RAILING
10
3668.9
20
2640
30
0
11
5108.9
21
2640
31
0
0
LINE
8
A-CENTER
10
0
20
-600
30
0
11
0
21
13000
31
0
0
LINE
8
A-DIMS
10
-6850
20
7500
30
0
11
-6850
21
12950
31
0
0
LINE
8
A-DIMS
10
6850
20
7500
30
0
11
6850
21
12950
31
0
0
LINE
8
A-DIMS
10
-6850
20
12800
30
0
11
6850
21
12800
31
0
0
LINE
8
A-DIMS
10
-6850
20
12800
30
0
11
-6959.7626
21
12869.6575
31
0
0
LINE
8
A-DIMS
10
-6850
20
12800
30
0
11
-6959.7626
21
12730.3425
31
0
0
LINE
8
A-DIMS
10
6850
20
12800
30
0
11
6959.7626
21
12730.3425
31
0
0
LINE
8
A-DIMS
10
6850
20
12800
30
0
11
6959.7626
21
12869.6575
31
0
0
TEXT
8
A-DIMS
10
0
20
12980
30
0
40
220
1
13700 ROOF OVERALL
50
0
72
1
11
0
21
12980
31
0
0
LINE
8
A-DIMS
10
-4388.9
20
990
30
0
11
-4388.9
21
-700
31
0
0
LINE
8
A-DIMS
10
4388.9
20
990
30
0
11
4388.9
21
-700
31
0
0
LINE
8
A-DIMS
10
-4388.9
20
-850
30
0
11
4388.9
21
-850
31
0
0
LINE
8
A-DIMS
10
-4388.9
20
-850
30
0
11
-4498.6626
21
-780.3425
31
0
0
LINE
8
A-DIMS
10
-4388.9
20
-850
30
0
11
-4498.6626
21
-919.6575
31
0
0
LINE
8
A-DIMS
10
4388.9
20
-850
30
0
11
4498.6626
21
-919.6575
31
0
0
LINE
8
A-DIMS
10
4388.9
20
-850
30
0
11
4498.6626
21
-780.3425
31
0
0
TEXT
8
A-DIMS
10
0
20
-670
30
0
40
220
1
8778 VISIBLE COLUMN SPAN
50
0
72
1
11
0
21
-670
31
0
0
LINE
8
A-DIMS
10
6850
20
0
30
0
11
8050
21
0
31
0
0
LINE
8
A-DIMS
10
6850
20
10650
30
0
11
8050
21
10650
31
0
0
LINE
8
A-DIMS
10
8200
20
0
30
0
11
8200
21
10650
31
0
0
LINE
8
A-DIMS
10
8200
20
0
30
0
11
8130.3425
21
-109.7626
31
0
0
LINE
8
A-DIMS
10
8200
20
0
30
0
11
8269.6575
21
-109.7626
31
0
0
LINE
8
A-DIMS
10
8200
20
10650
30
0
11
8269.6575
21
10759.7626
31
0
0
LINE
8
A-DIMS
10
8200
20
10650
30
0
11
8130.3425
21
10759.7626
31
0
0
TEXT
8
A-DIMS
10
7990
20
5325
30
0
40
220
1
10650 APEX
50
90
72
1
11
7990
21
5325
31
0
0
LINE
8
A-DIMS
10
4750
20
0
30
0
11
7400
21
0
31
0
0
LINE
8
A-DIMS
10
4750
20
8500
30
0
11
7400
21
8500
31
0
0
LINE
8
A-DIMS
10
7550
20
0
30
0
11
7550
21
8500
31
0
0
LINE
8
A-DIMS
10
7550
20
0
30
0
11
7480.3425
21
-109.7626
31
0
0
LINE
8
A-DIMS
10
7550
20
0
30
0
11
7619.6575
21
-109.7626
31
0
0
LINE
8
A-DIMS
10
7550
20
8500
30
0
11
7619.6575
21
8609.7626
31
0
0
LINE
8
A-DIMS
10
7550
20
8500
30
0
11
7480.3425
21
8609.7626
31
0
0
TEXT
8
A-DIMS
10
7340
20
4250
30
0
40
220
1
8500 EAVE PURLIN
50
90
72
1
11
7340
21
4250
31
0
0
TEXT
8
A-TITLE
10
-8400
20
11800
30
0
40
360
1
A-201  FRONT ELEVATION
50
0
0
TEXT
8
A-ANNO
10
-8400
20
11380
30
0
40
200
1
OPEN PAVILION / OCTAGONAL PYRAMIDAL ROOF
50
0
0
LINE
8
A-TITLE
10
-8400
20
11200
30
0
11
-3200
21
11200
31
0
0
TEXT
8
A-ANNO
10
-8400
20
10750
30
0
40
170
1
UNITS: MILLIMETRES | MODEL SPACE 1:1
50
0
0
TEXT
8
A-ANNO
10
-8400
20
10480
30
0
40
170
1
RECOMMENDED PLOT: A3 @ 1:50
50
0
0
TEXT
8
A-ANNO
10
-8400
20
10210
30
0
40
170
1
PROCEDURAL CONCEPT MODEL - NOT FOR CONSTRUCTION
50
0
0
TEXT
8
A-ANNO
10
-8400
20
9940
30
0
40
170
1
VERIFY LOCAL CODES, MATERIAL GRADES AND CONNECTION DESIGN
50
0
0
ENDSEC
0
EOF
